<?xml version="1.0" standalone="no"?>
<!DOCTYPE svg PUBLIC "-//W3C//DTD SVG 1.1//EN" "http://www.w3.org/Graphics/SVG/1.1/DTD/svg11.dtd" >
<svg xmlns="http://www.w3.org/2000/svg" xmlns:xlink="http://www.w3.org/1999/xlink" version="1.1">
<metadata></metadata>
<defs>
<font id="blogger_sansbold_italic" horiz-adv-x="1105" >
<font-face units-per-em="2048" ascent="1556" descent="-492" />
<missing-glyph horiz-adv-x="614" />
<glyph horiz-adv-x="0" />
<glyph unicode="&#xd;" horiz-adv-x="614" />
<glyph unicode=" "  horiz-adv-x="614" />
<glyph unicode="&#x09;" horiz-adv-x="614" />
<glyph unicode="&#xa0;" horiz-adv-x="614" />
<glyph unicode="!" horiz-adv-x="546" d="M123 125q0 35 16.5 66.5t43 55t62.5 38t74 14.5q63 0 105.5 -41t42.5 -100q0 -35 -16.5 -67t-43 -56.5t-61.5 -38.5t-72 -14q-66 0 -108.5 42t-42.5 101zM215 467l100 862q8 51 55.5 92t106.5 41t96 -40t29 -93l-141 -862q-8 -47 -50 -81t-89 -34q-53 0 -83 34t-24 81z " />
<glyph unicode="&#x22;" horiz-adv-x="784" d="M254 920zM262 1030l104 428q6 23 21.5 41.5t38 31.5t47 18t49.5 3q51 -8 74.5 -47t7.5 -82q-45 -115 -78 -216t-80 -216q-14 -35 -50 -53t-73 -14q-37 6 -53 38.5t-8 67.5zM561 1030l104 428q6 23 21.5 41.5t38 31.5t47 18t49.5 3q51 -8 74.5 -47t7.5 -82 q-45 -115 -78 -216t-80 -216q-14 -35 -50 -53t-73 -14q-37 6 -53 38.5t-8 67.5z" />
<glyph unicode="#" horiz-adv-x="1189" d="M141 115l6 18l111 291q-53 4 -85 37t-32 80q0 31 14.5 57.5t37 46t52 30.5t58.5 11h53l31 78h-12q-55 0 -89 33.5t-34 83.5q0 31 14.5 57.5t37 44.5t51 29.5t57.5 11.5h73l129 336q20 47 61.5 71.5t94.5 24.5q43 -4 75 -35.5t32 -74.5q0 -25 -11 -41l-106 -281h94 l129 336q20 47 61 71.5t95 24.5q47 -4 76.5 -35.5t29.5 -74.5q0 -16 -3 -24.5t-7 -16.5l-107 -281q47 -2 84 -35t37 -82q0 -59 -48 -101t-114 -42h-57l-31 -78h17q49 0 86 -34t37 -85q0 -59 -47.5 -101t-112.5 -42h-78l-129 -340q-23 -47 -62.5 -71.5t-93.5 -24.5 q-53 4 -83.5 39.5t-22.5 87.5l6 18l111 291h-95l-129 -340q-23 -47 -62.5 -71.5t-92.5 -24.5q-49 4 -82 39.5t-25 87.5zM631 686h94l31 78h-94z" />
<glyph unicode="$" horiz-adv-x="1077" d="M96 227q0 20 10.5 46t30 46.5t50 35t71.5 14.5q33 0 61.5 -9.5t59.5 -20.5t66.5 -22.5t82.5 -13.5l43 305q-66 23 -131 48.5t-118.5 64.5t-86 96t-32.5 144q0 98 33.5 175.5t97 134t151.5 89.5t197 39l14 102q4 23 21.5 38t40.5 15t36 -15t9 -38l-15 -102 q51 -4 109.5 -13.5t109 -29t84 -50t33.5 -77.5q0 -57 -47 -99.5t-112 -42.5q-29 0 -49.5 7.5t-42 15.5t-50 16.5t-71.5 12.5l-39 -287q70 -25 136 -50.5t117.5 -62.5t83 -92t31.5 -137q0 -102 -37.5 -183t-102 -140.5t-154 -94.5t-189.5 -45l-14 -104q-4 -23 -21.5 -38.5 t-40.5 -15.5t-36 15.5t-9 38.5l15 100q-61 2 -131 13.5t-128.5 33t-97.5 56t-39 81.5zM502 1008q0 -45 23.5 -66.5t45.5 -32.5l39 -18l35 246q-59 -10 -101 -38t-42 -91zM635 309q68 14 106.5 52.5t38.5 97.5q0 47 -23.5 67.5t-45.5 30.5l-39 16z" />
<glyph unicode="%" horiz-adv-x="1521" d="M201 1051q0 84 25.5 159.5t74.5 132t121 89t164 32.5q143 0 213.5 -86t70.5 -215q0 -86 -26.5 -160.5t-75.5 -132t-121 -90t-162 -32.5q-141 0 -212.5 86t-71.5 217zM306.5 62.5q-17.5 46.5 2.5 95.5l15 22l862 1221q31 41 77 56.5t93 0.5q45 -14 65.5 -52t1.5 -85 q-8 -23 -18 -37l-860 -1223q-31 -41 -78 -56t-96 -5q-47 16 -64.5 62.5zM444 1075q0 -98 74 -98q55 0 82 45t27 117q0 45 -18.5 70.5t-55.5 25.5q-55 0 -82 -44t-27 -116zM852 283q0 84 26.5 159.5t76 132t121 90t161.5 33.5q141 0 213 -87t72 -216q0 -84 -26 -159.5 t-75 -132t-120.5 -89t-163.5 -32.5q-141 0 -213 86t-72 215zM1098 309q-1 -98 71 -98q57 0 83 45t26 117q0 45 -17.5 70.5t-54.5 25.5q-55 0 -81.5 -44t-26.5 -116z" />
<glyph unicode="&#x26;" horiz-adv-x="1396" d="M127 348q0 84 29.5 153.5t78 126t108.5 102.5t122 81q-47 66 -71.5 132.5t-24.5 131.5q0 86 40 157t104.5 121t146 77.5t165.5 27.5q78 0 143.5 -23.5t113.5 -62.5t75 -88t27 -98q0 -37 -14.5 -66.5t-38 -50t-53 -31t-60.5 -10.5q-55 0 -75.5 28.5t-35 63.5t-34 63.5 t-72.5 28.5q-55 0 -102.5 -32.5t-47.5 -81.5q0 -45 31 -93.5t68 -93.5l294 -362l97 143q37 55 71.5 70.5t67.5 11.5q47 -4 84 -34.5t37 -80.5q0 -31 -17.5 -69.5t-46 -81.5t-63.5 -87t-68 -83l109 -143q8 -10 15 -28.5t7 -41.5q0 -27 -12 -52.5t-33.5 -46t-51.5 -32.5 t-64 -12q-41 0 -62.5 15t-44.5 44l-74 96q-90 -66 -194.5 -110.5t-239.5 -44.5q-100 0 -181 27.5t-137.5 76.5t-86 116.5t-29.5 145.5zM412 389q0 -61 43 -110.5t133 -49.5q72 0 136 30t118 73l-232 286q-39 -20 -74.5 -42.5t-63.5 -50t-44 -61.5t-16 -75z" />
<glyph unicode="'" horiz-adv-x="538" d="M291 1030l104 428q6 23 21.5 41.5t38 31.5t47 18t49.5 3q51 -8 74.5 -47t7.5 -82q-45 -115 -78 -216t-80 -216q-14 -35 -50 -53t-73 -14q-37 6 -53 38.5t-8 67.5z" />
<glyph unicode="(" horiz-adv-x="647" d="M162 270q0 268 91 542.5t290 524.5q51 63 129 64q66 0 94.5 -36t28.5 -83q0 -33 -12.5 -54.5t-28.5 -41.5q-160 -213 -232.5 -436.5t-72.5 -452.5q0 -135 25.5 -276.5t78.5 -258.5q8 -16 13 -31.5t5 -35.5q0 -25 -10 -51.5t-29.5 -48t-50 -35t-69.5 -13.5q-37 0 -67 15.5 t-46 46.5q-74 141 -105.5 318t-31.5 343z" />
<glyph unicode=")" horiz-adv-x="645" d="M-16 -336q0 35 12 55.5t29 42.5q160 213 232.5 435.5t72.5 451.5q0 135 -25.5 277.5t-79.5 259.5q-6 14 -12 30.5t-6 36.5q0 25 10 51.5t29.5 48t49.5 35t71 13.5q78 0 110 -64q72 -141 105.5 -318t33.5 -343q0 -268 -90 -542.5t-290 -524.5q-25 -31 -60 -46.5t-72 -15.5 q-63 0 -91.5 36t-28.5 81z" />
<glyph unicode="*" horiz-adv-x="1097" d="M176 1157q0 59 35 93t72 34q14 0 20 -2l221 -82l-26 166q-8 47 26.5 88t106.5 41t106.5 -41t26.5 -88l-27 -166l224 82q6 2 20 2q37 0 71.5 -33.5t34.5 -93.5q0 -43 -29.5 -74.5t-72.5 -42.5l-170 -18l115 -131q16 -18 25.5 -41t9.5 -45q0 -20 -11.5 -42t-31 -38 t-44 -27.5t-51.5 -11.5q-35 0 -64.5 16.5t-45.5 40.5l-86 144l-84 -144q-16 -25 -46 -41t-65 -16q-27 0 -51.5 11.5t-43.5 27.5t-30.5 37.5t-11.5 42.5q0 23 9 45t26 41l115 131l-170 18q-43 10 -73 42t-30 75z" />
<glyph unicode="+" d="M106 725q0 55 44.5 92t97.5 37h246v264q0 51 40.5 91t100.5 40q59 0 100 -37.5t41 -93.5v-264h246q53 0 97 -37t44 -92t-41 -93t-100 -38h-246v-264q0 -55 -41 -92t-100 -37t-100 40t-41 89v264h-246q-59 0 -100.5 38t-41.5 93z" />
<glyph unicode="," horiz-adv-x="552" d="M123 125q0 35 16.5 66.5t43 55t61.5 38t73 14.5q63 0 106.5 -40t43.5 -105q0 -27 -11.5 -71t-29.5 -93t-44 -98.5t-54.5 -89.5t-58 -64.5t-56.5 -24.5q-12 0 -27.5 3t-28 13.5t-18.5 27.5t2 48q6 25 17.5 44.5t25 39t27.5 42t25 57.5q-51 10 -82 49t-31 88z" />
<glyph unicode="-" horiz-adv-x="899" d="M139 614q0 51 39 88t98 37h510q57 0 96.5 -37t39.5 -88q0 -53 -39 -89t-97 -36h-510q-59 0 -98 36t-39 89z" />
<glyph unicode="." horiz-adv-x="552" d="M123 125q0 35 16.5 66.5t43 55t62.5 38t74 14.5q63 0 105.5 -41t42.5 -100q0 -35 -16.5 -67t-43 -56.5t-61.5 -38.5t-72 -14q-66 0 -108.5 42t-42.5 101z" />
<glyph unicode="/" horiz-adv-x="737" d="M-25 57l732 1409q25 47 71.5 71t93.5 13q51 -10 78 -53t15 -90q-6 -20 -15 -31l-719 -1380q-25 -47 -72.5 -71.5t-95.5 -14.5q-53 10 -82.5 54t-5.5 93z" />
<glyph unicode="0" d="M139 430l80 563q14 100 54 189.5t106.5 156t162 104.5t218.5 38t207 -38t133 -104.5t64.5 -155.5t0.5 -190l-80 -563q-12 -94 -55 -176t-111.5 -142.5t-161.5 -95t-208 -34.5t-198 34.5t-134 95t-70.5 142.5t-7.5 176zM424 430q-12 -88 29 -142.5t133 -54.5t147 54.5 t68 142.5l82 578q14 98 -21 160.5t-137 62.5t-153.5 -62.5t-65.5 -160.5z" />
<glyph unicode="1" d="M272 1071q0 45 22.5 78t57.5 53l441 238q43 23 81 22q66 0 104 -39t30 -98l-170 -1210q-8 -53 -55.5 -92t-106.5 -39t-96 38.5t-29 92.5l139 995l-174 -98q-33 -18 -62.5 -30.5t-64.5 -12.5q-43 0 -80 22.5t-37 79.5z" />
<glyph unicode="2" d="M90 119q0 35 8 62.5t23 49.5q80 135 198.5 239.5t241.5 203.5q51 41 108.5 85t106.5 92t82 103.5t33 116.5q0 68 -41 114t-127 46q-53 0 -95 -8.5t-81 -24.5q-35 -14 -72 -34.5t-82 -20.5q-49 0 -86 29.5t-37 80.5q0 59 52.5 102.5t128 71t159.5 41t150 13.5 q102 0 180 -29t131 -78t81 -115.5t28 -142.5q0 -143 -61.5 -246.5t-160.5 -191.5q-59 -53 -123.5 -104.5t-129 -103.5t-125 -104.5t-109.5 -109.5h457q55 0 90 -33t35 -80q0 -29 -13.5 -55.5t-35 -45.5t-51 -30.5t-62.5 -11.5h-674q-59 0 -93 34t-34 85z" />
<glyph unicode="3" d="M111 166q0 55 46 98t107 43q33 0 58.5 -12t55.5 -25.5t65.5 -26t88.5 -12.5q76 0 127.5 25t83 63.5t46 85t14.5 87.5q0 86 -55.5 121.5t-153.5 35.5q-20 0 -32.5 -3t-23 -8t-22.5 -8t-31 -3q-51 0 -82.5 33.5t-31.5 84.5q0 41 22 66l359 371h-332q-53 0 -88 33.5 t-35 80.5q0 31 13.5 57.5t35 47t50 33t61.5 12.5h571q61 0 97 -35t36 -88q0 -61 -47 -109l-326 -331q141 -27 222.5 -120t81.5 -235q0 -88 -36 -184t-109 -176t-182.5 -132t-256.5 -52q-35 0 -101.5 6t-132 25.5t-114.5 55t-49 95.5z" />
<glyph unicode="4" d="M109 403q0 16 10 41t22 48l521 907q23 37 59.5 58.5t77.5 21.5q49 0 87 -36t38 -85q0 -18 -4.5 -30.5t-12.5 -27.5q-59 -102 -113.5 -196t-106.5 -185.5t-106.5 -185.5t-113.5 -196h254l45 313q8 55 54 92t106 37q57 0 94 -37t29 -92l-45 -313h28q53 0 87 -34t34 -81 q0 -57 -47 -99t-111 -42h-24l-25 -168q-8 -55 -54 -92t-106 -37q-59 0 -95 36.5t-27 92.5l24 168h-452q-59 0 -93 36.5t-34 85.5z" />
<glyph unicode="5" d="M111 168q0 27 12 52.5t33.5 45t50.5 30.5t59 11q31 0 56.5 -12t54.5 -25.5t65.5 -26t87.5 -12.5q80 0 133.5 26t84 67t44 91t13.5 97q0 94 -47 138t-121 44q-35 0 -61.5 -9t-55.5 -9q-27 -20 -53 -37q-23 -14 -50.5 -24.5t-51.5 -10.5q-61 0 -98.5 39t-26.5 100l100 566 q6 33 22.5 58.5t41 42.5t53 26.5t57.5 9.5h494q53 0 96 -25.5t43 -87.5q0 -39 -16.5 -65.5t-41 -44t-55 -24.5t-61.5 -7h-383l-49 -266q33 10 66.5 13t68.5 3q94 0 171 -26.5t132 -78t85 -125t30 -165.5q0 -96 -34 -195.5t-101.5 -181.5t-171 -134t-244.5 -52 q-35 0 -106.5 6t-144.5 25.5t-127 56.5t-54 96z" />
<glyph unicode="6" d="M141 500q0 209 39 386t118 305t199.5 199.5t284.5 71.5q31 0 90.5 -5t118 -21.5t101.5 -47t43 -83.5q0 -49 -40 -89t-106 -40q-25 0 -48 6t-49 13t-54.5 13t-65.5 6q-74 2 -123 -23.5t-81.5 -71.5t-53 -108.5t-35.5 -133.5q63 35 117.5 48t112.5 13q84 0 157.5 -24.5 t129 -75t87 -125t31.5 -172.5q0 -111 -36 -211.5t-107.5 -178t-177 -123.5t-244.5 -46q-115 0 -192.5 38.5t-125 107.5t-69 164t-21.5 208zM422 457.5q0 -62.5 16.5 -110.5t54 -76.5t103.5 -28.5q63 0 108.5 23.5t72 62.5t38.5 87t12 95q0 88 -46 130t-130 42 q-59 0 -116.5 -18.5t-98.5 -51.5l-4 -24q-10 -68 -10 -130.5z" />
<glyph unicode="7" d="M242 90q0 12 4 32.5t14 37.5l592 1024h-463q-53 0 -88 33.5t-35 82.5q0 59 48 102.5t112 43.5h655q55 0 92 -35t37 -88q0 -12 -5 -33.5t-17 -40.5l-676 -1183q-16 -29 -48 -55.5t-91 -26.5q-53 0 -92 27.5t-39 78.5z" />
<glyph unicode="8" d="M90 369q0 137 73 232t183 161q-53 47 -84 110.5t-31 141.5q0 104 43 186t116 140.5t168 89t198 30.5q90 0 165.5 -25.5t130 -71.5t85 -109.5t30.5 -141.5q0 -104 -50 -187t-146 -149q72 -51 115.5 -127t43.5 -176q0 -104 -44 -193.5t-122.5 -156t-185 -104t-229.5 -37.5 q-102 0 -186 28.5t-144.5 79.5t-94.5 123t-34 156zM379 403q0 -74 56.5 -123t148.5 -49q53 0 100 16.5t82 46.5t55.5 68.5t20.5 81.5q0 78 -60.5 126t-146.5 67q-53 -10 -99.5 -31.5t-81 -51.5t-55 -67.5t-20.5 -83.5zM518 1047q0 -63 47 -104.5t115 -55.5q86 18 144.5 69 t58.5 123q0 59 -45 97t-115 38q-41 0 -79 -12t-65.5 -34.5t-44 -53.5t-16.5 -67z" />
<glyph unicode="9" d="M174 139q0 49 40 89t105 40q25 0 48.5 -6t49 -13t54.5 -13.5t66 -6.5q74 -2 123 24t81.5 72t52 108.5t35.5 133.5q-63 -35 -117.5 -48t-111.5 -13q-84 0 -157.5 24.5t-129 74.5t-87 125t-31.5 173q0 111 35.5 211t107.5 178t177.5 124t244.5 46q113 0 191.5 -39 t125.5 -107.5t68.5 -163.5t21.5 -208q0 -209 -38.5 -386t-117.5 -305t-200 -199.5t-285 -71.5q-31 0 -90 5t-117.5 21.5t-101.5 47t-43 83.5zM481 934q0 -88 46 -130t130 -42q59 0 116.5 18.5t98.5 50.5l5 25q8 68 9 130.5t-15.5 110.5t-54.5 76.5t-103 28.5 q-66 0 -110 -24.5t-70.5 -62.5t-39 -86t-12.5 -95z" />
<glyph unicode=":" horiz-adv-x="552" d="M123 0zM123 125q0 35 16.5 66.5t43 55t62.5 38t74 14.5q63 0 105.5 -41t42.5 -100q0 -35 -16.5 -67t-43 -56.5t-61.5 -38.5t-72 -14q-66 0 -108.5 42t-42.5 101zM209 739q0 35 16.5 66.5t43 55t62.5 38t74 14.5q63 0 105.5 -41t42.5 -100q0 -35 -16.5 -67t-43 -56.5 t-61.5 -38.5t-72 -14q-66 0 -108.5 42t-42.5 101z" />
<glyph unicode=";" horiz-adv-x="552" d="M123 0zM123 125q0 35 16.5 66.5t43 55t61.5 38t73 14.5q63 0 106.5 -40t43.5 -105q0 -27 -11.5 -71t-29.5 -93t-44 -98.5t-54.5 -89.5t-58 -64.5t-56.5 -24.5q-12 0 -27.5 3t-28 13.5t-18.5 27.5t2 48q6 25 17.5 44.5t25 39t27.5 42t25 57.5q-51 10 -82 49t-31 88z M209 739q0 35 16.5 66.5t43 55t62.5 38t74 14.5q63 0 105.5 -41t42.5 -100q0 -35 -16.5 -67t-43 -56.5t-61.5 -38.5t-72 -14q-66 0 -108.5 42t-42.5 101z" />
<glyph unicode="&#x3c;" horiz-adv-x="1361" d="M219 700q0 72 35 101.5t88 54.5l872 393q16 8 37 11.5t31 3.5q57 0 90 -35t33 -82q0 -43 -32 -80t-77 -57l-665 -289l583 -289q35 -16 54.5 -47t19.5 -61q0 -57 -44 -100.5t-114 -43.5q-6 0 -27.5 3t-35.5 12l-760 391q-37 18 -62.5 42.5t-25.5 71.5z" />
<glyph unicode="=" d="M188 535q0 55 44 93t98 38h610q53 0 97 -38t44 -93t-41 -93.5t-100 -38.5h-610q-59 0 -100.5 38t-41.5 94zM188 915q0 55 44 92t98 37h610q53 0 97 -36.5t44 -92.5q0 -55 -41 -93t-100 -38h-610q-59 0 -100.5 38t-41.5 93z" />
<glyph unicode="&#x3e;" horiz-adv-x="1361" d="M162 297q0 41 30.5 78t77.5 57l666 289l-586 289q-33 16 -53.5 46.5t-20.5 63.5q0 55 45.5 99.5t114.5 44.5q10 0 30.5 -3.5t33.5 -11.5l762 -393q35 -18 60.5 -41.5t25.5 -73.5q0 -35 -10.5 -59.5t-28 -41.5t-40 -29.5t-48.5 -24.5l-869 -391q-16 -8 -38.5 -11.5 t-28.5 -3.5q-59 0 -91 34t-32 83z" />
<glyph unicode="?" horiz-adv-x="1028" d="M233 1260q0 59 50.5 101t123 69.5t155.5 41t149 13.5q94 0 170.5 -26.5t129 -76t81 -118t28.5 -152.5q0 -72 -17.5 -132t-47 -112.5t-69.5 -97.5t-85 -86q-59 -55 -93 -84.5t-67 -58.5q-10 -10 -15 -29.5t-9 -34.5q-10 -59 -59.5 -95t-102.5 -36q-43 0 -84 28.5t-41 94.5 q0 43 18.5 84t47 80t64.5 74.5t71 66.5q27 25 62.5 56.5t67.5 70.5t53.5 84t21.5 96q0 63 -43 108.5t-138 45.5q-35 0 -80 -7t-86 -26q-35 -16 -64.5 -35.5t-70.5 -19.5q-47 0 -84 29.5t-37 83.5zM352 123q0 35 16.5 66.5t43 55t61.5 38t74 14.5q66 0 108.5 -41t42.5 -100 q0 -35 -16 -67t-44 -56.5t-62.5 -38.5t-73.5 -14q-66 0 -108 41.5t-42 101.5z" />
<glyph unicode="@" horiz-adv-x="1605" d="M193 547q0 164 52 304t153.5 242.5t248 160t334.5 57.5q156 0 270.5 -44t191.5 -120t114.5 -177.5t37.5 -217.5q0 -90 -19.5 -169t-61 -137.5t-110.5 -92.5t-167 -34q-76 0 -122 21.5t-77 58.5q-57 -55 -101 -77.5t-103 -22.5q-133 0 -210 84t-77 221q0 80 25.5 151.5 t74.5 125t123 84t170 30.5q94 0 150.5 -30.5t84 -77.5t36 -107.5t8.5 -117.5v-49.5t4 -44t14 -31t29 -11.5q33 0 52 20.5t28.5 50.5t12.5 63.5t3 62.5q0 82 -24.5 153.5t-76 124t-127 83t-178.5 30.5q-127 0 -225 -41t-165.5 -113.5t-103.5 -171t-36 -213.5 q0 -86 25.5 -155.5t77 -119.5t130 -77.5t187.5 -27.5q35 0 64.5 4t57 10t57.5 15t65 20q51 16 99 6t62 -55q8 -33 -2 -59.5t-31.5 -46t-49 -34t-52.5 -24.5q-29 -10 -68.5 -20.5t-84.5 -18.5t-93.5 -12.5t-91.5 -4.5q-141 0 -249.5 41t-183.5 117t-113.5 181.5t-38.5 232.5z M788 610q0 -106 76 -106q27 0 53.5 11t55.5 30q0 12 1 22.5t2 25.5t2 38.5t1 60.5q0 35 -12.5 64.5t-55.5 29.5q-68 0 -95.5 -52t-27.5 -124z" />
<glyph unicode="A" horiz-adv-x="1206" d="M45 98q0 14 5 31.5t9 28.5l564 1165q29 59 69.5 99t114.5 40t105.5 -39t43.5 -100l236 -1165v-23q0 -70 -49 -111.5t-117 -41.5q-41 0 -79 26.5t-48 69.5l-43 207h-434l-98 -207q-23 -45 -67 -70.5t-81 -25.5q-55 0 -93 31.5t-38 84.5zM528 518h287l-55 350 q-8 45 -8 99.5v101.5q-12 -47 -28.5 -101.5t-37.5 -99.5z" />
<glyph unicode="B" horiz-adv-x="1191" d="M150 147l161 1149q10 63 62.5 105.5t118.5 42.5h346q104 0 182 -30t128 -79t74.5 -112.5t24.5 -132.5q0 -66 -20.5 -117t-55 -92t-82 -73t-102.5 -56q41 -18 79 -43t67.5 -60t48 -79t18.5 -101q0 -94 -41 -179t-116.5 -149.5t-181 -102.5t-234.5 -38h-338q-68 0 -108 44 q-33 36 -33 82q0 10 2 21zM453 260h229q115 0 172 54.5t57 146.5q0 74 -46 114.5t-120 40.5h-241zM541 879h235q29 0 61.5 11t59.5 33.5t44 57.5t17 82q0 49 -27.5 86t-96.5 37h-250z" />
<glyph unicode="C" horiz-adv-x="1069" d="M143 520l58 406q16 121 61 220t120 169.5t178.5 108.5t238.5 38q78 0 149.5 -16t125.5 -45t86 -66t32 -80q0 -53 -45 -94t-109 -41q-35 0 -50 9.5t-34 21.5l-18 12q-35 23 -74 36t-88 13q-139 0 -203.5 -77.5t-83.5 -208.5l-57 -406q-6 -41 -7 -77q0 -22 3 -42 q6 -53 29.5 -90t67.5 -57.5t114 -20.5q49 0 91 13.5t83 36.5l25 12q23 10 40 20.5t52 10.5q53 0 86 -33t33 -78q0 -47 -39 -89t-103.5 -74t-146.5 -50t-168 -18q-135 0 -227.5 37.5t-146.5 108.5t-72 170q-9 52 -9 109q0 53 8 111z" />
<glyph unicode="D" horiz-adv-x="1216" d="M150 147l161 1151q4 31 20.5 57.5t42 46t56.5 32t64 12.5h231q174 0 286.5 -44t174.5 -119q64 -75 82 -172q11 -55 10 -114q0 -44 -6 -90l-51 -352q-14 -109 -60.5 -209t-130.5 -177t-210 -123t-300 -46h-231q-33 0 -59.5 12.5t-46 31.5t-29 46t-4.5 57zM453 260h139 q84 0 145.5 23.5t102.5 63.5t63.5 93.5t30.5 114.5l51 352q4 28 4 55.5t-4 53.5q-8 52 -39 89.5t-86 59t-137 21.5h-139z" />
<glyph unicode="E" horiz-adv-x="1052" d="M150 145l161 1153q4 27 19.5 53.5t40 47t54.5 33t64 12.5h555q53 0 89 -36t36 -83q0 -61 -49 -101t-112 -40h-426l-47 -330h387q51 0 88 -33t37 -84q0 -59 -48.5 -101t-113.5 -42h-387l-47 -334h446q53 0 90 -34t37 -81q0 -59 -49 -102t-113 -43h-543q-37 0 -70.5 7 t-58.5 23q-24 18 -36 46q-7 18 -7 40q0 13 3 29z" />
<glyph unicode="F" horiz-adv-x="1052" d="M145 113l166 1187q4 27 19.5 53.5t40 47t54.5 33t64 12.5h555q53 0 90 -36t37 -83q0 -61 -50 -101t-113 -40h-426l-45 -332h387q49 0 86 -33t37 -84q0 -59 -47.5 -101t-112.5 -42h-387l-68 -481q-8 -53 -55 -92t-107 -39q-59 0 -96 38q-30 32 -30 74q0 9 1 19z" />
<glyph unicode="G" horiz-adv-x="1146" d="M143 520l58 406q16 121 61 220t120 169.5t178.5 108.5t238.5 38q78 0 149.5 -16t125.5 -45t86 -66t32 -80q0 -53 -45 -94t-109 -41q-35 0 -49 10.5t-33 20.5l-20 12q-35 23 -74 36t-88 13q-139 0 -203.5 -77.5t-83.5 -208.5l-57 -406q-6 -41 -6 -77q0 -22 2 -42 q6 -53 29.5 -90t67.5 -57.5t114 -20.5q53 0 95 12.5t79 30.5l45 320h-106q-47 0 -79 34t-32 81q0 29 12.5 55.5t34 45.5t47 30.5t53.5 11.5h224q72 0 114 -35q35 -28 35 -82q0 -12 -2 -26l-63 -453q-10 -72 -60.5 -124t-123 -86t-156.5 -49t-164 -15q-135 0 -227.5 37.5 t-146.5 108.5t-72 170q-9 52 -9 109q0 53 8 111z" />
<glyph unicode="H" horiz-adv-x="1269" d="M145 115l170 1216q8 51 55.5 91t106.5 40t96 -39q30 -32 30 -74q0 -9 -1 -18l-65 -477h436l65 477q8 53 56.5 92t105.5 39t95 -39q31 -32 31 -74q0 -9 -1 -18l-170 -1216q-8 -53 -55 -93t-107 -40q-29 0 -53.5 10t-41.5 28.5t-25.5 43t-4.5 51.5l68 477h-436l-68 -477 q-8 -53 -55 -93t-107 -40q-59 0 -96 40q-30 32 -30 74q0 9 1 19z" />
<glyph unicode="I" horiz-adv-x="546" d="M145 113l170 1218q8 51 55.5 91t106.5 40t96 -39q30 -32 31 -74q0 -9 -2 -18l-170 -1218q-8 -53 -55 -92t-107 -39q-59 0 -96 38q-30 32 -30 74q0 9 1 19z" />
<glyph unicode="J" horiz-adv-x="870" d="M47 106q0 35 15.5 62t38 45t49 28.5t51.5 10.5q35 0 59.5 -6t63.5 -6q51 0 85.5 16t57 48t35 77t20.5 100l121 850q8 53 54 92t108 39q57 0 95 -39q31 -32 31 -74q0 -9 -1 -18l-121 -850q-16 -117 -52 -210t-99.5 -157.5t-160 -98t-233.5 -33.5q-29 0 -65.5 3t-70.5 15 t-57.5 37.5t-23.5 68.5z" />
<glyph unicode="K" horiz-adv-x="1138" d="M145 115l170 1216q8 51 55.5 91t106.5 40t96 -39q30 -32 30 -74q0 -9 -1 -18l-53 -389l469 461q23 23 56.5 41t68.5 18q43 0 84 -34.5t41 -86.5q0 -31 -10.5 -50t-38.5 -48l-471 -461l364 -594q14 -27 14 -53q0 -25 -11 -51.5t-32.5 -50t-51.5 -37.5t-64 -14 q-76 0 -111 59l-324 532l-40 -41l-60 -417q-8 -53 -55 -93t-107 -40q-59 0 -96 40q-30 32 -30 74q0 9 1 19z" />
<glyph unicode="L" horiz-adv-x="1030" d="M147 141l168 1190q8 51 55.5 91t106.5 40t96 -39q30 -32 30 -74q0 -9 -1 -18l-151 -1073h444q53 0 88 -33t35 -82q0 -59 -47 -101t-111 -42h-577q-61 0 -103 41q-35 34 -34 81q0 9 1 19z" />
<glyph unicode="M" horiz-adv-x="1554" d="M137 111l170 1216q8 59 56.5 97t111.5 38q102 0 131 -80l264 -723l465 725q29 45 70 61.5t84 16.5q63 0 99 -40q29 -33 29 -75q0 -10 -1 -20l-170 -1216q-8 -53 -55.5 -91t-104.5 -38q-59 0 -97 38q-31 31 -31 73q0 9 1 18l98 704l-296 -459q-27 -41 -66 -59t-82 -18 q-41 0 -73.5 18t-47.5 59l-170 459l-98 -704q-4 -27 -19.5 -50.5t-38 -41t-50 -27.5t-58.5 -10q-59 0 -94 38q-28 31 -28 71q0 10 1 20z" />
<glyph unicode="N" horiz-adv-x="1310" d="M145 115l170 1208q8 59 55.5 99t112.5 40q41 0 77 -20.5t52 -55.5q51 -119 94.5 -217t84 -193t84 -196.5t96.5 -224.5l108 774q8 53 56.5 93t107.5 40t95 -40q29 -33 29 -74q0 -9 -1 -19l-170 -1208q-8 -57 -55 -98t-115 -41q-41 0 -76 19t-51 52l-360 828l-107 -766 q-8 -53 -56 -93t-108 -40q-59 0 -95 40q-29 32 -29 74q0 9 1 19z" />
<glyph unicode="O" horiz-adv-x="1249" d="M166 520l55 406q14 109 58.5 206t118 170.5t181 116.5t250.5 43t238.5 -43t148.5 -117q54 -72 69 -170q8 -50 8 -104q0 -50 -7 -102l-55 -406q-16 -113 -63.5 -211t-124 -170.5t-182 -114.5t-238.5 -42t-227.5 42t-151.5 114q-56 74 -75 172q-10 53 -10 110q0 49 7 100z M453 520q-5 -34 -5 -64q0 -80 34 -136q48 -78 175 -78t198 77.5t89 200.5l55 406q5 36 5 68q0 78 -32 132q-44 76 -179 76t-201 -75.5t-84 -200.5z" />
<glyph unicode="P" horiz-adv-x="1167" d="M145 117l166 1179q4 31 20.5 57.5t41 46t55.5 32t64 12.5h301q127 0 215 -33t142 -89t78.5 -130t24.5 -156q0 -129 -43 -230t-121.5 -171t-188 -106.5t-241.5 -36.5h-174l-53 -375q-8 -53 -55 -94t-107 -41q-57 0 -95 40q-31 33 -31 76q0 9 1 19zM522 752h174 q268 0 269 254q0 33 -9.5 65.5t-33 57t-64.5 40t-102 15.5h-174z" />
<glyph unicode="Q" horiz-adv-x="1249" d="M165 334q-6 42 -6 87q0 48 7 99l57 406q14 109 58.5 206t118 170.5t181 116.5t250.5 43t238.5 -43t149 -116.5t69.5 -170.5q7 -50 7 -102q0 -51 -7 -104l-57 -406q-12 -94 -48 -178t-92.5 -152.5t-134 -117.5t-174.5 -72q4 -55 22.5 -79.5t53.5 -24.5h60q57 0 90.5 -29 t33.5 -80t-18 -80t-51 -42t-78 -16t-98 -3q-141 0 -217 94t-80 252q-100 18 -170 66t-111 118t-54 158zM453 520q-4 -31 -4 -59q0 -84 35 -141q48 -78 175 -78t198 77.5t87 200.5l57 406q4 34 4 64q0 81 -31 136q-44 76 -179 76t-202 -75.5t-83 -200.5z" />
<glyph unicode="R" horiz-adv-x="1259" d="M145 117l166 1179q8 59 60.5 103.5t115.5 44.5h357q127 0 214 -32t140 -84t75.5 -119.5t22.5 -139.5q0 -176 -93 -289.5t-253 -163.5l221 -421q14 -27 14 -54q-1 -11 -3 -23q-8 -38 -33 -68t-60.5 -48t-70.5 -18q-82 0 -113 63l-268 539h-139l-66 -469q-8 -53 -56 -94 t-108 -41q-57 0 -94 40q-30 32 -30 76q0 9 1 19zM535 844h229q117 0 179.5 50t62.5 142q0 27 -9.5 53.5t-33 48t-63.5 34t-101 12.5h-217z" />
<glyph unicode="S" horiz-adv-x="1077" d="M88 166q0 27 12.5 51.5t34 45t49 32.5t58.5 12q23 0 47 -7t53 -17q35 -12 83 -26.5t114 -14.5q119 0 179 53t60 149q0 53 -22.5 78t-44.5 35q-31 14 -66 28.5t-76 26.5q-66 20 -130 46t-116.5 67t-84 101.5t-31.5 152.5q0 111 39 201t109.5 152.5t171 96t221.5 33.5 q43 0 108.5 -7t128 -25.5t106.5 -52.5t44 -87t-45.5 -97t-118.5 -44q-29 0 -50.5 6t-46.5 16q-29 10 -63.5 20.5t-87.5 10.5q-41 0 -81 -8t-70.5 -28.5t-49 -55.5t-18.5 -86q0 -55 23.5 -79.5t45.5 -35.5q37 -20 72 -32.5t68 -22.5q66 -23 131 -48.5t117.5 -66.5t84 -101 t31.5 -151q0 -119 -45 -213t-123 -158.5t-183 -99t-226 -34.5q-55 0 -126 10t-134.5 31.5t-107.5 57.5t-44 85z" />
<glyph unicode="T" horiz-adv-x="1071" d="M215 1298q0 25 13.5 50.5t36 47t52 35t62.5 13.5h721q51 0 89 -34t38 -85q0 -29 -14.5 -54.5t-37 -45t-52 -30.5t-60.5 -11h-217l-152 -1071q-8 -53 -55 -92t-107 -39q-59 0 -96 38q-30 31 -30 72q0 10 2 21l151 1071h-217q-57 0 -92 33.5t-35 80.5z" />
<glyph unicode="U" horiz-adv-x="1253" d="M182 492l117 835q10 59 57 97t109 38q57 0 93 -40q29 -33 29 -75q0 -10 -1 -20l-117 -835q-4 -29 -4 -55q0 -73 34 -125q46 -70 163 -70t180 69.5t80 180.5l116 835q8 53 55.5 94t106.5 41q63 0 99 -41q29 -34 29 -75q0 -9 -1 -19l-117 -835q-16 -111 -63 -204t-123 -162 t-177.5 -106.5t-221.5 -37.5q-123 0 -214.5 38.5t-146.5 106.5q-54 68 -76 161q-12 53 -13 113q0 44 7 91z" />
<glyph unicode="V" horiz-adv-x="1193" d="M211 1309q0 72 51 112.5t117 40.5q37 0 73.5 -25.5t47.5 -70.5l141 -791q8 -45 9 -99v-35q0 -34 -1 -66q14 47 29.5 101t36.5 99l360 791q23 43 68 69.5t86 26.5q57 0 93 -31.5t36 -82.5q0 -16 -4 -34t-8 -28l-564 -1165q-29 -61 -71.5 -100t-116.5 -39t-103.5 39.5 t-41.5 99.5l-236 1165q0 4 -1 11.5t-1 11.5z" />
<glyph unicode="W" horiz-adv-x="1699" d="M211 1333q4 29 20.5 51.5t41 39t53 24.5t55.5 8q45 0 80 -23.5t41 -74.5l59 -529q9 -76 9 -154v-15v-34q0 -68 3 -137q29 82 51.5 170.5t55.5 169.5l188 482q27 72 65 111.5t122 39.5q78 0 106.5 -41t34.5 -110l53 -482q8 -72 8 -143v-28q-1 -24 -1 -49q0 -61 4 -122 q29 86 51 171t57 171l205 523q20 49 59 76.5t86 27.5q49 0 96.5 -27.5t47.5 -85.5q0 -23 -9 -38l-475 -1194q-23 -51 -67.5 -90t-118.5 -39t-108.5 39.5t-41.5 91.5l-51 501q-7 71 -7 145v18v33q0 66 -3 132q-25 -82 -47.5 -165t-52.5 -163l-197 -505q-18 -47 -60 -87 t-124 -40q-63 0 -103.5 40.5t-46.5 88.5l-135 1183q-2 10 -2 27q0 6 -2 12z" />
<glyph unicode="X" horiz-adv-x="1134" d="M39 102q0 23 10 45.5t21 36.5l434 566l-254 514q-4 10 -6 24.5t-2 28.5q0 29 13 55.5t35.5 46t50.5 31.5t58 12q47 0 80 -28.5t49 -65.5l177 -381l286 381q23 29 63 61.5t93 32.5q49 0 84 -34.5t35 -81.5q0 -23 -9.5 -42.5t-21.5 -39.5l-395 -514l274 -566q4 -10 8 -26.5 t4 -32.5q0 -27 -14 -52.5t-36.5 -46t-51.5 -32.5t-55 -12q-53 0 -80 26.5t-41 54.5l-209 451l-336 -451v3q-20 -29 -55 -56.5t-88 -27.5q-51 0 -86 36.5t-35 83.5z" />
<glyph unicode="Y" horiz-adv-x="1085" d="M211 1315q0 31 14.5 57.5t38 46t53 31.5t60.5 12q33 0 62.5 -14t45.5 -47l185 -508l325 508q23 33 57.5 47t69.5 14q51 0 89 -35.5t38 -85.5q0 -20 -8 -37.5t-14 -33.5l-459 -705l-63 -448q-8 -53 -55.5 -94t-108.5 -41t-98 40q-30 32 -30 76q0 9 1 19l63 448l-260 705 q-4 8 -5 20.5t-1 24.5z" />
<glyph unicode="Z" horiz-adv-x="1073" d="M57 125q0 27 15.5 57.5t27.5 46.5q92 125 180.5 242t175.5 232.5t175 232.5t182 244h-463q-55 0 -90 33.5t-35 82.5q0 59 48.5 103.5t113.5 44.5h694q59 0 95 -35t36 -88q0 -33 -12 -57.5t-29 -44.5l-718 -955h473q53 0 90 -34t37 -83q0 -31 -13.5 -57.5t-37 -45.5 t-53 -31.5t-60.5 -12.5h-703q-57 0 -93 36t-36 89z" />
<glyph unicode="[" horiz-adv-x="684" d="M123 -100l223 1597q10 72 64.5 99.5t121.5 27.5h209q47 0 84 -32.5t37 -80.5q0 -41 -16.5 -67.5t-43 -43t-59 -23.5t-63.5 -7h-66l-190 -1343h65q59 0 103.5 -24t44.5 -85q0 -43 -17.5 -70.5t-44 -45t-59.5 -24.5t-63 -7h-209q-55 0 -92 38.5t-29 90.5z" />
<glyph unicode="\" horiz-adv-x="737" d="M150 1407q2 47 40.5 90t92.5 53q51 10 91 -13.5t50 -70.5l336 -1409q6 -25 -3 -49t-28.5 -44.5t-45.5 -35t-54 -18.5q-51 -10 -91 14.5t-53 71.5l-329 1380q-6 12 -6 31z" />
<glyph unicode="]" horiz-adv-x="684" d="M12 -117q0 43 16.5 71t43 44t59.5 22.5t66 6.5h65l191 1343h-66q-27 0 -53.5 5t-48 17.5t-34.5 34t-13 54.5q0 41 17 68.5t44 44t59.5 23.5t65.5 7h209q27 0 50.5 -11t39.5 -28.5t25.5 -40t5.5 -47.5l-224 -1597q-8 -53 -53 -91t-104 -38h-209q-29 0 -55.5 5t-48 18 t-35 34.5t-13.5 54.5z" />
<glyph unicode="^" horiz-adv-x="749" d="M135 1069q4 27 22.5 53.5t45.5 48.5l260 256q23 23 52.5 37.5t66.5 14.5t61.5 -14.5t40.5 -37.5q47 -63 94 -128.5t96 -127.5q18 -25 29.5 -50t9.5 -52q-8 -51 -46 -82t-93 -31q-29 0 -57.5 13.5t-38.5 36.5q-23 31 -38 52t-29.5 41.5t-31 43t-38.5 51.5l-191 -188 q-18 -20 -49 -35t-59 -15q-55 0 -85 31t-22 82z" />
<glyph unicode="_" horiz-adv-x="1310" d="M-90 -322q0 55 44 93.5t97 38.5h1209q53 0 97 -38t44 -94q0 -55 -41 -92t-100 -37h-1209q-59 0 -100 37t-41 92z" />
<glyph unicode="`" horiz-adv-x="485" d="M301 1399q0 47 39 78.5t76 31.5q35 0 49 -10t31 -29l12 -16l145 -162q10 -12 11 -32q0 -53 -37 -86t-84 -33q-35 0 -50.5 11t-35.5 32l-144 168q-8 10 -10 23.5t-2 23.5z" />
<glyph unicode="a" horiz-adv-x="1091" d="M145 387l33 231q12 92 50 171t100.5 137.5t148.5 91.5t197 33q223 1 305 -107q61 -79 60 -215q0 -48 -7 -102l-53 -381q-4 -23 0 -35t12 -18.5t19.5 -8.5t23.5 -8q37 -16 37 -61q0 -55 -36 -89t-128 -34q-57 0 -95 18.5t-67 67.5q-63 -47 -128.5 -69.5t-151.5 -22.5 q-180 0 -262 110q-63 85 -63 213q0 37 5 78zM428 387q-3 -24 -3 -45q0 -119 114 -119q61 0 163 43v19.5t3 19.5l51 369q2 17 2 32q0 48 -24 72q-32 32 -109 31q-76 0 -113 -47t-51 -144z" />
<glyph unicode="b" horiz-adv-x="1095" d="M176 330l143 1024q8 49 50.5 87t109.5 38t99 -38q25 -30 26 -68q0 -9 -2 -19l-49 -361q53 29 106.5 43.5t124.5 14.5q98 0 164 -26t102 -72q38 -47 50 -109q7 -35 7 -72q0 -30 -5 -61l-47 -344q-12 -80 -49 -150t-98.5 -121t-147.5 -80.5t-195 -29.5q-104 0 -181 26.5 t-127 72.5q-51 45 -71 109q-14 43 -13 90q0 22 3 46zM459 330q-1 -10 -1 -19q0 -44 30 -71q38 -33 110 -33q78 0 119 37t51 102l53 375q2 12 2 23q-1 39 -23 63q-28 31 -104 31q-102 0 -174 -58z" />
<glyph unicode="c" horiz-adv-x="907" d="M145 377l39 276q12 82 47 154t94.5 124t143.5 82.5t195 30.5q43 0 99 -6t106.5 -23.5t85 -49t34.5 -82.5q0 -18 -6 -40t-21.5 -40.5t-43 -29.5t-72.5 -11q-16 0 -30.5 2t-35.5 10q-31 12 -58.5 23.5t-74.5 11.5q-86 0 -128 -42t-52 -114l-39 -276q-3 -18 -2 -35 q0 -48 22 -79q30 -42 115 -42q47 0 80 11.5t66 23.5q16 6 29.5 9t35.5 3q70 0 93.5 -28.5t23.5 -61.5q0 -59 -41 -97t-100.5 -59.5t-124 -28.5t-113.5 -7q-109 0 -183.5 30.5t-119.5 83t-61 124.5q-9 40 -8 83q0 34 5 70z" />
<glyph unicode="d" horiz-adv-x="1101" d="M145 387l33 231q12 92 43 169t84 134.5t132 89t190 31.5q47 0 85 -8t91 -30l49 350q8 53 49 89t109 36t100 -37q26 -30 27 -68q0 -10 -2 -20l-154 -1090q-4 -23 4 -37t25 -34q20 -23 20 -56q0 -35 -14.5 -60.5t-36 -43t-49 -26.5t-51.5 -9q-39 0 -67 21.5t-46 56.5 q-82 -41 -152.5 -65.5t-148.5 -24.5q-180 0 -262 110q-63 85 -63 213q0 37 5 78zM428 387q-3 -24 -3 -45q0 -119 114 -119q61 0 163 43v19.5t3 19.5l67 477q-47 14 -84 20.5t-63 6.5q-76 0 -113 -47t-51 -144z" />
<glyph unicode="e" horiz-adv-x="993" d="M141 344l47 342q10 78 48 144.5t99.5 115.5t147.5 77t193 28q182 0 270 -82t88 -217q0 -166 -105 -263.5t-341 -97.5q-41 0 -77 3t-79 9l-10 -67q-1 -10 -2 -19q0 -40 30 -65q36 -31 119 -31q49 0 94.5 11.5t98.5 33.5q6 4 20.5 8.5t40.5 4.5q66 0 89.5 -33t23.5 -66 q0 -59 -46 -96t-112.5 -59.5t-138.5 -30.5t-123 -8q-102 0 -177 27.5t-123 75.5q-48 47 -66 113q-12 43 -13 90q0 25 4 52zM461 610q49 -4 90 -6t57 -2q66 0 105 29.5t39 107.5q0 49 -28 70.5t-81 21.5q-74 0 -117 -35.5t-53 -97.5z" />
<glyph unicode="f" horiz-adv-x="755" d="M88 -311l195 1390q14 100 58 175t108.5 124t143.5 74t165 25q18 0 57 -2t78 -13.5t67.5 -36t28.5 -69.5q0 -66 -49 -101.5t-109 -35.5q-29 0 -59.5 6t-58.5 6q-66 0 -102 -41t-44 -96l-14 -101h152q53 0 85.5 -30.5t32.5 -77.5q0 -59 -45 -97t-106 -38h-152l-149 -1061 q-8 -53 -50 -88t-110 -35t-99 34q-26 28 -26 68q0 10 2 21z" />
<glyph unicode="g" horiz-adv-x="1124" d="M162 220q-5 33 -5 67q0 42 7 88l41 289q12 82 49 152.5t99.5 122.5t148.5 82t194 30q104 0 181 -27t126.5 -75t70.5 -111q13 -42 13 -88q0 -24 -4 -50l-108 -768q-12 -82 -47 -153.5t-94.5 -123.5t-144.5 -83t-197 -31q-43 0 -98.5 7.5t-105.5 25.5t-85 48t-35 73 q0 53 44 91t103 38q10 0 25.5 -2t38.5 -10q29 -14 57.5 -24.5t71.5 -10.5q88 0 131 41t53 114l13 88q-93 -32 -199 -32h-6q-111 0 -181.5 29.5t-108.5 81t-48 121.5zM446 375q-3 -20 -3 -37q0 -46 19 -76q27 -41 103 -41q47 0 91 12.5t83 40.5l62 426q1 7 1 14q0 41 -32 66 q-37 29 -108 29q-78 0 -121 -39t-54 -106z" />
<glyph unicode="h" horiz-adv-x="1120" d="M147 113l177 1249q6 49 51 88t104 39t96 -37q30 -30 30 -72q0 -9 -1 -18l-51 -367q47 27 97 41.5t104 14.5q98 0 166.5 -27t108.5 -74q41 -46 55 -112q8 -35 7 -74q0 -35 -6 -72l-63 -440q-4 -33 -1 -47.5t21 -36.5q10 -14 18.5 -25.5t8.5 -33.5q0 -59 -45 -91t-125 -32 q-31 0 -64.5 7t-59 32.5t-37.5 73.5q-6 24 -7 57q0 32 6 71l68 484q2 15 2 29q-1 38 -17 58q-22 28 -85 29q-43 0 -94.5 -16t-92.5 -51l-90 -647q-8 -53 -53 -90t-105 -37q-59 0 -95 36q-29 30 -29 72q0 9 1 19z" />
<glyph unicode="i" horiz-adv-x="583" d="M180 227l99 693q8 51 54 87.5t105 36.5t95 -36q29 -30 29 -70q0 -9 -1 -18l-94 -668q-4 -33 -2 -47.5t20 -36.5q10 -14 18.5 -25.5t8.5 -33.5q0 -59 -45 -91t-125 -32q-31 0 -64.5 7t-59.5 33q-26 25 -38 73q-6 24 -6 57q0 32 6 71zM315 1305q0 33 14.5 61.5t40 50 t58.5 33.5t70 12q61 0 100 -38t39 -91q0 -33 -14.5 -61.5t-39 -50t-57 -33.5t-69.5 -12q-63 0 -102.5 37.5t-39.5 91.5z" />
<glyph unicode="j" horiz-adv-x="583" d="M-129 -326q-6 35 5 60.5t31.5 44t44 29t46.5 14.5q59 10 99 47t50 111l132 940q8 51 54 87.5t105 36.5t95 -36q29 -30 29 -70q0 -9 -1 -18l-131 -934q-12 -88 -49 -162t-95.5 -126t-134 -81t-165.5 -29q-47 0 -78 23.5t-37 62.5zM315 1305q0 33 14.5 61.5t39 50 t57.5 33.5t70 12q63 0 102 -38t39 -91q0 -33 -14.5 -61.5t-39 -50t-57 -33.5t-69.5 -12q-63 0 -102.5 37.5t-39.5 91.5z" />
<glyph unicode="k" horiz-adv-x="997" d="M147 113l175 1239q8 53 54 90t105 37t95 -37q29 -30 29 -71q0 -9 -1 -19l-92 -650l326 306q20 18 48.5 26t53.5 8q53 0 87 -29.5t34 -76.5q0 -57 -51 -100h2l-287 -265l244 -397q10 -16 13 -37.5t-1 -38.5q-10 -53 -54 -82.5t-100 -29.5q-74 0 -108 57l-223 375l-25 -21 l-41 -284q-8 -53 -54 -90t-106 -37q-59 0 -95 36q-29 30 -29 72q0 9 1 19z" />
<glyph unicode="l" horiz-adv-x="548" d="M164 99q-6 24 -6 56t6 72l158 1125q8 51 54 89t105 38t95 -37q29 -30 29 -71q0 -9 -1 -19l-155 -1100q-4 -33 -1 -47.5t21 -36.5q10 -14 18.5 -25.5t8.5 -33.5q0 -59 -45 -91t-125 -32q-31 0 -65 7t-59.5 32.5t-37.5 73.5z" />
<glyph unicode="m" horiz-adv-x="1675" d="M154 113l86 620q8 51 4 63.5t-8 22.5q-14 23 -19.5 38t-5.5 30q0 59 47 95t104 36q35 0 59.5 -15.5t41.5 -41.5q76 43 149.5 66.5t139.5 23.5q125 0 225 -90q90 45 163.5 67.5t157.5 22.5q182 -1 272 -101q72 -80 73 -201q0 -31 -5 -65l-61 -432q-4 -33 -1 -47.5 t21 -36.5q10 -14 18.5 -25.5t8.5 -33.5q0 -59 -45 -91t-125 -32q-31 0 -64.5 7t-59.5 33q-26 25 -38 73q-6 24 -6 57q0 32 6 71l64 453q2 13 2 24q0 38 -20 67q-26 38 -83 38q-41 0 -84 -18.5t-90 -53.5q-2 -14 -2 -26.5t-2 -26.5l-80 -571q-8 -53 -48 -89t-111 -36 q-72 0 -102 36q-23 28 -23 67q0 11 2 22l73 530q5 33 5 60q0 33 -7 59q-12 47 -79 47q-39 0 -86.5 -15.5t-96.5 -37.5v-11.5t-2 -11.5l-86 -620q-8 -53 -48 -89t-112 -36t-102 36q-23 27 -22 65q0 11 2 24z" />
<glyph unicode="n" horiz-adv-x="1124" d="M154 113l86 620q8 51 4 63.5t-8 22.5q-14 23 -19.5 37t-5.5 31q0 55 46 93t110 38q61 0 100 -60q76 47 148.5 68t134.5 21q196 0 276 -110q60 -82 60 -204q0 -41 -7 -86l-55 -395q-4 -33 -1 -47.5t21 -36.5q10 -14 18.5 -25.5t8.5 -33.5q0 -59 -45 -91t-125 -32 q-31 0 -64.5 7t-59 32.5t-37.5 73.5q-6 24 -7 57q0 32 6 71l58 420q3 20 3 38q0 51 -22 84q-28 44 -90 44q-63 0 -164 -43v-19.5t-2 -19.5l-86 -618q-8 -53 -48 -89t-112 -36t-102 36q-23 27 -22 65q0 11 2 24z" />
<glyph unicode="o" horiz-adv-x="1073" d="M143 367l43 305q10 80 49 149.5t101.5 120.5t150.5 81t197 30t187.5 -30t128.5 -81q49 -50 67 -120q12 -45 11 -94q0 -27 -3 -56l-43 -305q-12 -80 -50 -150t-101.5 -121t-150 -80.5t-195.5 -29.5t-188 29.5t-128 80.5t-69 121q-12 43 -12 90q0 30 5 60zM426 367 q-2 -15 -3 -28q1 -47 29 -75q36 -37 115 -37q80 0 126 37t57 103l43 307q2 13 2 26q0 45 -29 74q-37 37 -117 37t-125 -37t-55 -100z" />
<glyph unicode="p" horiz-adv-x="1081" d="M94 -309l146 1040q4 35 2 56.5t-13 39.5q-8 14 -13 26.5t-5 29.5q0 31 14.5 55.5t36 41.5t49 27.5t54.5 10.5q33 0 56 -15.5t42 -41.5q80 41 149.5 65.5t151.5 24.5q88 0 153.5 -30t105.5 -82t55 -127q7 -40 7 -83q0 -38 -6 -80l-32 -237q-12 -90 -43 -168t-84.5 -135.5 t-133 -89t-190.5 -31.5q-41 0 -81 7t-91 34l-47 -338q-8 -53 -50 -89t-110 -36t-99 37q-26 30 -26 68q0 10 2 20zM455 248q86 -27 145 -27q76 0 113 46t51 145l33 237q3 24 3 45q0 119 -112 119q-63 0 -164 -43v-19.5t-2 -19.5z" />
<glyph unicode="q" horiz-adv-x="1095" d="M144 220q-5 33 -5 69q0 41 6 86l41 289q12 82 49 152.5t99.5 122.5t148.5 82t195 30q104 0 181 -27t126 -75t69 -111q14 -43 14 -91q0 -23 -3 -47l-137 -968q-8 -53 -48 -89t-112 -36t-102 35q-23 28 -23 68q0 10 2 22l43 309q-49 -29 -99 -41t-116 -12q-106 0 -175 29.5 t-106.5 81t-47.5 121.5zM428 375q-3 -19 -3 -36q0 -47 21 -77q27 -41 107 -41q41 0 85 12.5t83 40.5l61 426q1 7 1 14q0 41 -31 66q-37 29 -107 29q-80 0 -123 -39t-53 -106z" />
<glyph unicode="r" horiz-adv-x="772" d="M154 113l86 618q4 35 3 56.5t-12 39.5q-8 14 -14 26.5t-6 29.5q0 59 49 97t109 38q33 0 57.5 -17.5t42.5 -46.5q76 41 146.5 64.5t119.5 23.5q86 0 119 -29.5t33 -74.5q-1 -68 -51 -110q-46 -38 -102 -37h-11q-33 2 -57.5 3t-46 -1t-44 -7.5t-51.5 -15.5v-19.5t-2 -19.5 l-86 -618q-8 -53 -54 -90t-106 -37q-59 0 -95 36q-29 29 -29 70q0 10 2 21z" />
<glyph unicode="s" horiz-adv-x="913" d="M96 135q0 47 42 89t108 42q25 0 49 -7t51 -15t57.5 -15.5t67.5 -7.5q59 0 98 22.5t39 69.5q0 23 -10 35t-25 21q-43 27 -108.5 46t-127 50t-105.5 83t-44 144q0 78 29 143.5t84 113.5t138 75t192 27q47 0 101 -7.5t100.5 -25t77 -48t30.5 -77.5q0 -39 -14.5 -62.5 t-36 -37t-45 -17.5t-41.5 -4q-27 0 -48.5 7t-43 14.5t-48 14.5t-63.5 7q-129 0 -129 -82q0 -37 51 -59q49 -23 112.5 -43.5t120 -53t96.5 -86t40 -141.5q0 -166 -117 -265t-332 -99q-47 0 -107.5 6t-113.5 23.5t-89 46t-36 73.5z" />
<glyph unicode="t" horiz-adv-x="739" d="M182 241q-2 24 -2 51q0 62 10 134l113 795q8 53 49 89t109 36q69 0 101 -37q26 -30 26 -68q0 -10 -2 -20l-33 -228h152q53 0 85.5 -30.5t32.5 -77.5q0 -59 -46 -97t-107 -38h-152l-43 -310q-9 -66 -9 -108q0 -32 5 -52q12 -44 86 -44q14 0 22.5 1t12.5 1 q86 0 119.5 -21.5t33.5 -69.5q0 -51 -18 -81.5t-48 -47t-69 -21.5t-82 -5q-119 0 -192.5 28.5t-110.5 84t-43 136.5z" />
<glyph unicode="u" horiz-adv-x="1124" d="M184 387l76 535q8 53 50 87.5t110 34.5t100 -34q25 -28 25 -67q0 -10 -2 -21l-76 -535q-3 -21 -2 -40q1 -50 19 -81q26 -43 94 -43q61 0 163 43v19.5t2 19.5l86 617q8 53 48.5 87.5t111.5 34.5t101 -34q23 -27 24 -66q0 -10 -2 -22l-92 -658q-4 -23 4 -37t25 -34 q20 -23 20 -56q0 -35 -14.5 -60.5t-36 -43t-48 -26.5t-50.5 -9q-41 0 -69 21.5t-46 56.5q-80 -51 -152.5 -70.5t-142.5 -19.5q-186 0 -268 110q-63 85 -63 213q0 37 5 78z" />
<glyph unicode="v" horiz-adv-x="962" d="M160 898v9q0 31 13 56.5t35.5 44t50.5 29t58 10.5q41 0 76 -24t43 -65l64 -344q16 -84 17 -168t5 -170q29 86 54.5 170t62.5 168l154 342q20 41 62 64.5t83 23.5q51 0 87 -29.5t36 -78.5q0 -18 -3 -28.5t-7 -20.5l-389 -776q-35 -66 -74 -95.5t-105 -29.5 q-68 0 -100.5 28.5t-46.5 91.5l-174 783q-2 4 -2 9z" />
<glyph unicode="w" horiz-adv-x="1423" d="M160 909q0 53 47 94t112 41q45 0 80 -23.5t41 -68.5l41 -338q6 -46 6 -92q0 -32 -3 -64q-7 -78 -7 -155q23 78 41.5 156t48.5 155l129 326q18 45 61.5 74.5t104.5 29.5q59 0 94 -29.5t39 -74.5l33 -326q6 -62 7 -125q0 -15 -1 -31q-1 -39 -1 -78.5t1 -78.5 q23 78 39.5 157t46.5 156l135 338q16 39 58.5 65.5t87.5 26.5q51 0 87 -31.5t36 -80.5q0 -10 -2 -19.5t-4 -13.5l-349 -793q-27 -59 -66.5 -89.5t-113.5 -30.5q-53 0 -92 26.5t-47 75.5l-39 328q-6 49 -6 99v25q2 62 2 126q-18 -63 -33.5 -126t-40.5 -124l-129 -328 q-25 -55 -66.5 -78.5t-105.5 -23.5q-68 0 -100.5 31.5t-42.5 91.5l-127 786q0 4 -1 7t-1 7z" />
<glyph unicode="x" horiz-adv-x="964" d="M45 98q0 41 31 76q84 94 157.5 176t157.5 176q-51 82 -100 161t-101 165q-8 12 -11 27.5t-3 29.5q0 53 47 94t113 41q59 0 86 -29.5t43 -58.5l125 -211l196 228q29 33 58.5 52t79.5 19q45 0 84 -31.5t39 -80.5q0 -12 -6.5 -33.5t-24.5 -42.5l-293 -330l215 -348 q8 -10 10 -23.5t2 -25.5q0 -57 -46 -100t-116 -43q-49 0 -72.5 17t-45.5 56q-23 39 -39.5 68t-32.5 55.5t-33.5 56t-40.5 68.5q-57 -66 -114.5 -130t-112.5 -130q-55 -61 -125 -61q-55 0 -91 30.5t-36 81.5z" />
<glyph unicode="y" horiz-adv-x="1124" d="M162 220q-5 33 -5 67q0 42 7 88l78 547q6 53 48 87.5t109 34.5q68 0 101 -34q26 -28 26 -68q0 -10 -2 -20l-78 -547q-3 -20 -3 -37q0 -46 19 -76q27 -41 103 -41q47 0 91 12.5t83 40.5l92 648q6 53 46.5 87.5t111.5 34.5q72 0 101 -34q25 -29 25 -71q0 -8 -1 -17 l-139 -990q-12 -82 -47 -153.5t-94.5 -123.5t-144.5 -83t-197 -31q-43 0 -98.5 7.5t-105.5 25.5t-85 48t-35 73q0 53 44 91t103 38q10 0 25.5 -2t38.5 -10q29 -14 57.5 -24.5t71.5 -10.5q88 0 131 41t53 114l13 88q-93 -32 -199 -32h-6q-111 0 -181.5 29.5t-108.5 81 t-48 121.5z" />
<glyph unicode="z" horiz-adv-x="888" d="M37 117q0 29 9 49t28 41l526 586h-313q-53 0 -86 30.5t-33 77.5q0 57 45 95t109 38h542q53 0 90 -29.5t37 -82.5q0 -51 -41 -99l-524 -581h338q53 0 87 -31t34 -78q0 -55 -45 -94t-109 -39h-567q-53 0 -90 34t-37 83z" />
<glyph unicode="{" horiz-adv-x="894" d="M111 475q0 49 15 78t37.5 44t46 19.5t42.5 6.5q20 2 37.5 6t32 15t26.5 33.5t21 61.5q6 33 11 56.5t11 58.5t17.5 92.5t31.5 155.5q14 68 52 121t94.5 89t128 55t155.5 19q29 0 57.5 -3t51 -15t37 -34.5t14.5 -61.5q0 -55 -17.5 -85t-44 -42t-56 -12t-56.5 4 q-12 2 -26.5 3t-22.5 1q-29 0 -57.5 -17.5t-34.5 -50.5q-2 -10 -10.5 -53t-17.5 -95.5t-19.5 -103.5t-16.5 -78q-20 -78 -73.5 -138t-157.5 -107q172 -90 160 -248l-27 -330q-2 -29 22.5 -47t49.5 -18q2 0 9 1t16 1t17.5 1t10.5 1q20 2 45 2t46.5 -7.5t35.5 -27t14 -55.5 q0 -55 -18.5 -87t-47 -49.5t-64.5 -22.5t-68 -5q-80 0 -147.5 20.5t-114 57t-71 89t-18.5 117.5l31 367q2 41 -6 63.5t-21.5 34t-30 14.5t-28.5 3q-16 2 -34.5 5t-34 14t-25.5 30.5t-10 52.5z" />
<glyph unicode="|" horiz-adv-x="546" d="M92 -328l246 1749q6 49 50 87t101 38t91 -38t28 -87l-246 -1749q-8 -51 -52 -88t-101 -37t-91 37t-26 88z" />
<glyph unicode="}" horiz-adv-x="894" d="M16 -274q0 49 13.5 76.5t37 41t55.5 15.5t68 2q8 -2 17 -2q6 -2 14 -2h17q43 0 65.5 19.5t26.5 43.5l65 330q33 158 230 248q-80 39 -121 101.5t-41 129.5q0 4 14.5 88t14.5 256q0 35 -20.5 51.5t-49.5 16.5q-10 0 -25.5 -1t-27.5 -3q-23 -4 -47.5 -5.5t-46 7t-35 28 t-13.5 58.5q0 55 18.5 86.5t46 48t62.5 21.5t70 5q160 0 255 -69.5t95 -196.5q0 -129 -4 -198.5t-10 -105.5t-10.5 -53.5t-4.5 -41.5q0 -33 6.5 -51.5t17.5 -27.5t26.5 -13t33.5 -6q14 -2 32 -5.5t34 -13.5t27.5 -29.5t11.5 -54.5q0 -49 -15.5 -77.5t-37 -44t-45 -19.5 t-41.5 -6t-36 -6.5t-33 -15.5t-27.5 -33.5t-20.5 -59.5l-74 -367q-12 -63 -51 -115t-95.5 -90t-129 -58.5t-154.5 -20.5q-29 0 -56.5 4t-50 16.5t-37 36t-14.5 62.5z" />
<glyph unicode="~" horiz-adv-x="1015" d="M213 637q6 43 29.5 79t57.5 62.5t75 41t82 14.5q51 0 88 -15.5t66.5 -34t54 -34t53.5 -15.5t47 14.5t34.5 31t35 30.5t49.5 14q43 0 74.5 -28.5t31.5 -75.5q0 -41 -24.5 -77t-61.5 -62.5t-81 -41t-81 -14.5q-49 0 -84.5 14.5t-66.5 32t-56.5 33t-52.5 19.5 q-27 2 -45 -11.5t-36.5 -30t-39 -31.5t-51.5 -15q-37 0 -69.5 26.5t-28.5 73.5z" />
<glyph unicode="&#xa2;" horiz-adv-x="907" d="M154 438l24 174q10 80 43 148.5t88.5 121t134 85t181.5 37.5l12 88q4 23 21.5 38t39.5 15q23 0 36.5 -15.5t8.5 -37.5l-12 -93q39 -4 81 -14t75 -28.5t54.5 -46t21.5 -68.5q0 -18 -6.5 -40t-21.5 -40.5t-43 -29.5t-73 -11q-16 0 -30.5 2t-34.5 10l-58 25l-65 -467 q16 4 31.5 11t31.5 15q31 12 66 13q72 0 95.5 -30t23.5 -60q0 -49 -27 -83t-68 -55.5t-91 -34t-95 -16.5l-14 -108q-4 -23 -21.5 -38.5t-40.5 -15.5t-36 15.5t-9 38.5l15 104q-102 4 -172 36t-111 84t-54.5 121.5t-0.5 149.5zM436 438q-10 -61 10.5 -101t77.5 -50l68 477 q-59 -12 -90 -51t-41 -101z" />
<glyph unicode="&#xa5;" d="M182 406q0 35 29 59t63 24h203l10 76l-16 39h-182q-31 0 -50.5 19.5t-19.5 48.5q0 35 28.5 59.5t63.5 24.5h103l-189 514q-4 8 -4 20.5v24.5q0 31 14.5 57.5t38 46t53 31.5t58.5 12q33 0 63.5 -14t45.5 -47l184 -508l326 508q23 33 57.5 47t68.5 14q53 0 91.5 -35.5 t38.5 -85.5q0 -20 -8.5 -37.5t-16.5 -33.5l-334 -514h103q29 0 49 -19.5t20 -48.5q0 -35 -27.5 -59.5t-64.5 -24.5h-180l-23 -39l-10 -76h199q29 0 49 -19t20 -48q0 -35 -27.5 -59.5t-64.5 -24.5h-199l-30 -221q-8 -49 -47 -87t-95 -46q-16 -4 -24 -4q-18 0 -31 6 q-47 10 -73.5 47t-20.5 84l31 221h-203q-31 0 -50.5 19.5t-19.5 48.5z" />
<glyph unicode="&#xa8;" horiz-adv-x="907" d="M344 1276q0 55 45 97t105 42q53 0 85.5 -31.5t32.5 -78.5q0 -59 -46 -101.5t-107 -42.5q-51 0 -83 34t-32 81zM709 1276q0 29 12 54.5t33.5 44t49 29.5t58.5 11q51 0 84 -31.5t33 -78.5q0 -29 -12.5 -55.5t-34 -46t-48 -31t-57.5 -11.5q-51 0 -84.5 34t-33.5 81z" />
<glyph unicode="&#xa9;" horiz-adv-x="1515" d="M211 535q0 164 49 304t143.5 242.5t229.5 160.5t307 58q135 0 236.5 -40.5t169 -113.5t102.5 -174t35 -224q0 -164 -49.5 -304.5t-143.5 -243t-229 -160.5t-307 -58q-135 0 -236.5 40.5t-169 113.5t-102.5 174.5t-35 224.5zM336 555q0 -100 27.5 -183t82 -142.5 t136.5 -92.5t190 -33q137 0 246.5 47.5t184.5 131.5t115 197.5t40 246.5q0 100 -27.5 183t-82 142.5t-136.5 92.5t-190 33q-139 0 -248 -47.5t-183.5 -131.5t-114.5 -197.5t-40 -246.5zM543 580q-8 -63 2 -118.5t43 -95.5t89 -63.5t138 -23.5q33 0 78 6t86 20t70.5 39 t29.5 62q0 29 -18.5 49t-46.5 20q-12 0 -27 -6q-31 -14 -62.5 -25.5t-74.5 -11.5q-76 0 -102.5 38t-16.5 110l19 125q10 72 47 109.5t112 37.5q43 0 71 -10.5t56 -26.5q12 -6 25 -6q35 0 61.5 25.5t26.5 58.5t-24.5 54.5t-60.5 34.5t-76 18.5t-70 5.5q-82 0 -144.5 -24 t-106.5 -64.5t-71 -95t-35 -117.5z" />
<glyph unicode="&#xab;" horiz-adv-x="882" d="M158 524l377 469q20 25 37.5 39.5t45.5 14.5q27 0 47.5 -19.5t20.5 -48.5q0 -27 -16 -47l-326 -404l227 -426q6 -12 7 -26q0 -35 -27 -63.5t-68 -28.5q-29 0 -42 13t-29 42zM485 524l283 353q20 25 37.5 39t46.5 14q25 0 46.5 -19.5t21.5 -48.5q0 -27 -17 -47l-231 -291 l149 -291q6 -12 6 -28q0 -37 -30.5 -61.5t-59.5 -24.5t-42 14t-25 39z" />
<glyph unicode="&#xad;" horiz-adv-x="899" d="M139 614q0 51 39 88t98 37h510q57 0 96.5 -37t39.5 -88q0 -53 -39 -89t-97 -36h-510q-59 0 -98 36t-39 89z" />
<glyph unicode="&#xae;" horiz-adv-x="1433" d="M244 772q0 150 46 281t133 226t213 150.5t288 55.5q127 0 222 -38t158.5 -106.5t95.5 -163.5t32 -210q0 -150 -45.5 -278t-132.5 -221t-213 -146.5t-287 -53.5q-127 0 -222.5 37t-160 103.5t-96 160t-31.5 203.5zM369 791q0 -88 25.5 -162t75.5 -126t125 -82t175 -30 q127 0 227.5 42t169 117t105.5 176t37 222q0 92 -26 168t-76 130t-124.5 85t-175.5 31q-129 0 -228 -44t-169 -121t-105.5 -181.5t-35.5 -224.5zM584 627q-4 -31 17.5 -51.5t51.5 -20.5q33 0 61.5 21.5t33.5 50.5l24 170h33l98 -193q6 -12 29.5 -30.5t75.5 -18.5 q47 0 59 28.5t-2 53.5l-94 184q63 27 99 77t36 124q0 33 -11.5 64.5t-37 56t-66.5 40t-102 15.5h-137q-35 0 -66 -27.5t-35 -62.5zM791 936l16 121h78q35 0 45 -15.5t10 -33.5q0 -72 -66 -72h-83z" />
<glyph unicode="&#xb4;" horiz-adv-x="647" d="M354 1229q0 25 7.5 38t17.5 25l188 162l19 16q23 18 39 28.5t51 10.5q33 0 59.5 -25.5t26.5 -64.5q0 -12 -5 -29.5t-22 -37.5l-190 -168q-27 -20 -45.5 -31.5t-53.5 -11.5q-41 0 -66.5 23.5t-25.5 64.5z" />
<glyph unicode="&#xb8;" horiz-adv-x="698" d="M41 -330q0 31 22.5 49.5t55.5 18.5q29 0 67.5 -9.5t79.5 -9.5q102 0 103 50q0 23 -25 33t-84 20q-23 4 -41 8t-28.5 13.5t-12.5 26.5t8 48l47 172h162l-43 -158q98 -8 140.5 -49t42.5 -100q0 -98 -75 -161.5t-190 -63.5q-41 0 -82 7t-73.5 20.5t-53 35t-20.5 49.5z" />
<glyph unicode="&#xbb;" horiz-adv-x="882" d="M111 186q0 27 16 47l231 291l-149 291q-6 12 -6 29q0 37 30.5 61.5t59.5 24.5t42 -14.5t25 -38.5l185 -353l-283 -352q-20 -25 -37.5 -39t-46.5 -14q-27 0 -47 19.5t-20 47.5zM324 57q0 16 4 25.5t12 19.5l346 426l-211 404q-6 12 -6 29q0 37 30.5 61.5t59.5 24.5 t42 -14.5t26 -39.5l245 -469l-391 -485q-23 -29 -40 -42t-46 -13q-35 0 -53 21.5t-18 51.5z" />
<glyph unicode="&#xc1;" horiz-adv-x="1206" d="M45 0zM45 98q0 14 5 31.5t9 28.5l564 1165q29 59 69.5 99t114.5 40t105.5 -39t43.5 -100l236 -1165v-23q0 -70 -49 -111.5t-117 -41.5q-41 0 -79 26.5t-48 69.5l-43 207h-434l-98 -207q-23 -45 -67 -70.5t-81 -25.5q-55 0 -93 31.5t-38 84.5zM528 518h287l-55 350 q-8 45 -8 99.5v101.5q-12 -47 -28.5 -101.5t-37.5 -99.5zM729 1639q0 25 7.5 38t17.5 25l188 162l19 16q23 18 39 28.5t51 10.5q33 0 59.5 -25.5t26.5 -64.5q0 -12 -5 -29.5t-22 -37.5l-190 -168q-27 -20 -45.5 -31.5t-53.5 -11.5q-41 0 -66.5 23.5t-25.5 64.5z" />
<glyph unicode="&#xc5;" horiz-adv-x="1206" d="M45 98q0 14 5 31.5t9 28.5l566 1171q-39 51 -39 127q0 49 21.5 95t56 80t82 54.5t98.5 20.5q86 0 140 -58.5t54 -140.5q0 -51 -22.5 -97t-61.5 -81l238 -1171v-23q0 -70 -49 -111.5t-117 -41.5q-41 0 -79 26.5t-48 69.5l-43 207h-434l-98 -207q-23 -45 -67 -70.5 t-81 -25.5q-55 0 -93 31.5t-38 84.5zM528 518h287l-55 350q-8 45 -8 99.5v101.5q-12 -47 -28.5 -101.5t-37.5 -99.5zM721 1473q0 -35 22.5 -57.5t55.5 -22.5q41 0 72.5 29.5t31.5 70.5q0 35 -21.5 58.5t-56.5 23.5q-41 0 -72.5 -31t-31.5 -71z" />
<glyph unicode="&#xc6;" horiz-adv-x="1581" d="M45 96q0 16 5 33.5t9 28.5l557 1147q27 53 73 96t112 43h772q53 0 89 -35t36 -84q0 -31 -13.5 -56.5t-36 -44t-52 -29.5t-60.5 -11h-344l-45 -330h305q49 0 86 -33t37 -84q0 -59 -47 -101t-113 -42h-305l-47 -334h364q53 0 90 -33.5t37 -81.5q0 -59 -50 -102t-113 -43 h-461q-37 0 -71 7t-58.5 23.5t-35.5 45t-5 69.5l20 140h-358l-96 -205q-23 -45 -67 -71.5t-83 -26.5q-59 0 -95 31.5t-36 82.5zM532 518h279l94 666h-16q-41 0 -60 -39z" />
<glyph unicode="&#xc9;" horiz-adv-x="1052" d="M143 0zM150 145l161 1153q4 27 19.5 53.5t40 47t54.5 33t64 12.5h555q53 0 89 -36t36 -83q0 -61 -49 -101t-112 -40h-426l-47 -330h387q51 0 88 -33t37 -84q0 -59 -48.5 -101t-113.5 -42h-387l-47 -334h446q53 0 90 -34t37 -81q0 -59 -49 -102t-113 -43h-543 q-37 0 -70.5 7t-58 23.5t-36 45t-4.5 69.5zM700 1639q0 25 7.5 38t17.5 25l188 162l19 16q23 18 39 28.5t51 10.5q33 0 59.5 -25.5t26.5 -64.5q0 -12 -5 -29.5t-22 -37.5l-190 -168q-27 -20 -45.5 -31.5t-53.5 -11.5q-41 0 -66.5 23.5t-25.5 64.5z" />
<glyph unicode="&#xcd;" horiz-adv-x="546" d="M137 0zM145 113l170 1218q8 51 55.5 91t106.5 40t96 -39t29 -92l-170 -1218q-8 -53 -55 -92t-107 -39q-59 0 -96 38.5t-29 92.5zM383 1639q0 25 7.5 38t17.5 25l188 162l19 16q23 18 39 28.5t51 10.5q33 0 59.5 -25.5t26.5 -64.5q0 -12 -5 -29.5t-22 -37.5l-190 -168 q-27 -20 -45.5 -31.5t-53.5 -11.5q-41 0 -66.5 23.5t-25.5 64.5z" />
<glyph unicode="&#xd3;" horiz-adv-x="1249" d="M150 0zM166 520l55 406q14 109 58.5 206t118 170.5t181 116.5t250.5 43t238.5 -43t149 -116.5t68.5 -171t1 -205.5l-55 -406q-16 -113 -63.5 -211t-124 -170.5t-182 -114.5t-238.5 -42t-227.5 42t-151 114.5t-75.5 171t-3 210.5zM453 520q-18 -123 29.5 -200.5 t174.5 -77.5t198 77.5t89 200.5l55 406q18 125 -26.5 200.5t-179.5 75.5t-201 -75.5t-84 -200.5zM721 1639q0 25 7.5 38t17.5 25l188 162l19 16q23 18 39 28.5t51 10.5q33 0 59.5 -25.5t26.5 -64.5q0 -12 -5 -29.5t-22 -37.5l-190 -168q-27 -20 -45.5 -31.5t-53.5 -11.5 q-41 0 -66.5 23.5t-25.5 64.5z" />
<glyph unicode="&#xd8;" horiz-adv-x="1210" d="M89 39.5q-1 21.5 15 40.5l89 106q-39 68 -50.5 153t2.5 181l58 406q14 109 58 206t118 170.5t181.5 116.5t250.5 43q123 0 210 -31.5t142 -89.5l70 82q16 18 38.5 22.5t39.5 -7.5q16 -12 17 -34t-15 -40l-88 -104q35 -70 46 -155t-3 -179l-58 -406q-16 -113 -63 -211 t-124 -170.5t-182.5 -114.5t-238.5 -42q-117 0 -204 31.5t-144 90.5l-70 -84q-16 -18 -38.5 -22t-39.5 8q-16 12 -17 33.5zM426 465l539 639q-23 47 -68 72.5t-123 25.5q-135 0 -201.5 -75.5t-83.5 -200.5l-57 -406q-2 -16 -4 -29.5t-2 -25.5zM453 340q23 -47 68.5 -72.5 t117.5 -25.5q127 0 197.5 77.5t87.5 200.5l57 406q2 12 2 24.5t2 24.5z" />
<glyph unicode="&#xda;" horiz-adv-x="1253" d="M166 0zM182 492l117 835q10 59 57 97t109 38q57 0 93 -40t28 -95l-117 -835q-16 -111 30 -180.5t163 -69.5t180 69.5t80 180.5l116 835q8 53 55.5 94t106.5 41q63 0 99 -41t28 -94l-117 -835q-16 -111 -63 -204t-123 -162t-177.5 -106.5t-221.5 -37.5q-123 0 -214.5 38.5 t-146.5 106.5t-76.5 161t-5.5 204zM747 1639q0 25 7.5 38t17.5 25l188 162l19 16q23 18 39 28.5t51 10.5q33 0 59.5 -25.5t26.5 -64.5q0 -12 -5 -29.5t-22 -37.5l-190 -168q-27 -20 -45.5 -31.5t-53.5 -11.5q-41 0 -66.5 23.5t-25.5 64.5z" />
<glyph unicode="&#xdd;" horiz-adv-x="1085" d="M211 0zM211 1315q0 31 14.5 57.5t38 46t53 31.5t60.5 12q33 0 62.5 -14t45.5 -47l185 -508l325 508q23 33 57.5 47t69.5 14q51 0 89 -35.5t38 -85.5q0 -20 -8 -37.5t-14 -33.5l-459 -705l-63 -448q-8 -53 -55.5 -94t-108.5 -41t-98 39.5t-29 95.5l63 448l-260 705 q-4 8 -5 20.5t-1 24.5zM669 1639q0 25 7.5 38t17.5 25l188 162l19 16q23 18 39 28.5t51 10.5q33 0 59.5 -25.5t26.5 -64.5q0 -12 -5 -29.5t-22 -37.5l-190 -168q-27 -20 -45.5 -31.5t-53.5 -11.5q-41 0 -66.5 23.5t-25.5 64.5z" />
<glyph unicode="&#xe1;" horiz-adv-x="1091" d="M121 0zM145 387l33 231q12 92 50 171t100.5 137.5t148.5 91.5t197 33q223 0 305 -107.5t53 -316.5l-53 -381q-4 -23 0 -35t12 -18.5t19.5 -8.5t23.5 -8q37 -16 37 -61q0 -55 -36 -89t-128 -34q-57 0 -95 18.5t-67 67.5q-63 -47 -128.5 -69.5t-151.5 -22.5 q-180 0 -262 110.5t-58 290.5zM428 387q-23 -164 111 -164q61 0 163 43v19.5t3 19.5l51 369q10 72 -22 103.5t-109 31.5q-76 0 -113 -47t-51 -144zM538 1229q0 25 7.5 38t17.5 25l188 162l19 16q23 18 39 28.5t51 10.5q33 0 59.5 -25.5t26.5 -64.5q0 -12 -5 -29.5t-22 -37.5 l-190 -168q-27 -20 -45.5 -31.5t-53.5 -11.5q-41 0 -66.5 23.5t-25.5 64.5z" />
<glyph unicode="&#xe5;" horiz-adv-x="1091" d="M121 0zM145 387l33 231q12 92 50 171t100.5 137.5t148.5 91.5t197 33q223 0 305 -107.5t53 -316.5l-53 -381q-4 -23 0 -35t12 -18.5t19.5 -8.5t23.5 -8q37 -16 37 -61q0 -55 -36 -89t-128 -34q-57 0 -95 18.5t-67 67.5q-63 -47 -128.5 -69.5t-151.5 -22.5 q-180 0 -262 110.5t-58 290.5zM428 387q-23 -164 111 -164q61 0 163 43v19.5t3 19.5l51 369q10 72 -22 103.5t-109 31.5q-76 0 -113 -47t-51 -144zM519 1292q0 51 21.5 96.5t56 79t81.5 54t99 20.5q86 0 140 -57t54 -139q0 -51 -21.5 -97.5t-56.5 -80t-81 -53t-97 -19.5 q-88 0 -142 56t-54 140zM656 1309q0 -33 21.5 -56.5t56.5 -23.5q41 0 72.5 29.5t31.5 70.5q0 35 -22.5 58.5t-57.5 23.5q-41 0 -71.5 -30.5t-30.5 -71.5z" />
<glyph unicode="&#xe6;" horiz-adv-x="1458" d="M76 317v7q45 326 467 325q39 0 74.5 -2t70.5 -8l4 35q20 141 -137 141q-41 0 -72.5 -9t-64.5 -24q-12 -4 -31.5 -12t-48.5 -8q-57 0 -81 32.5t-24 69.5q0 49 34 84t87.5 58.5t121 34t132.5 10.5q193 0 269 -103q57 47 136 75t177 28q174 0 261 -82t87 -219 q0 -86 -25.5 -156t-81 -120t-142.5 -76.5t-210 -26.5q-33 0 -71.5 2t-73.5 6l-6 -43q-8 -53 28.5 -84t116.5 -31q53 0 95 12.5t96 32.5q16 4 29.5 8.5t29.5 4.5q53 0 85 -34t32 -75q0 -53 -47 -88t-113 -56.5t-135.5 -30.5t-116.5 -9q-188 0 -276 104q-158 -104 -349 -104 q-188 0 -269 91t-58 240zM354 315q-4 -41 17.5 -66.5t89.5 -25.5q49 0 90 12.5t86 40.5l18 127q-82 16 -145 17q-88 0 -118 -29t-36 -69zM408 776l12 6h2q-8 -6 -14 -6zM967 610q41 -4 85 -6t66 -2q78 0 107.5 32t29.5 85q0 49 -28.5 70.5t-81.5 21.5q-72 0 -115 -29.5 t-51 -83.5z" />
<glyph unicode="&#xe9;" horiz-adv-x="993" d="M131 0zM141 344l47 342q10 78 48 144.5t99.5 115.5t147.5 77t193 28q182 0 270 -82t88 -217q0 -166 -105 -263.5t-341 -97.5q-41 0 -77 3t-79 9l-10 -67q-8 -53 27.5 -84t119.5 -31q49 0 94.5 11.5t98.5 33.5q6 4 20.5 8.5t40.5 4.5q66 0 89.5 -33t23.5 -66 q0 -59 -46 -96t-112.5 -59.5t-138.5 -30.5t-123 -8q-102 0 -177 27.5t-123 75.5t-66.5 113.5t-8.5 141.5zM461 610q49 -4 90 -6t57 -2q66 0 105 29.5t39 107.5q0 49 -28 70.5t-81 21.5q-74 0 -117 -35.5t-53 -97.5zM573 1229q0 25 7.5 38t17.5 25l188 162l19 16 q23 18 39 28.5t51 10.5q33 0 59.5 -25.5t26.5 -64.5q0 -12 -5 -29.5t-22 -37.5l-190 -168q-27 -20 -45.5 -31.5t-53.5 -11.5q-41 0 -66.5 23.5t-25.5 64.5z" />
<glyph unicode="&#xed;" horiz-adv-x="583" d="M168 0zM180 227l99 693q8 51 54 87.5t105 36.5t95 -36.5t28 -87.5l-94 -668q-4 -33 -2 -47.5t20 -36.5q10 -14 18.5 -25.5t8.5 -33.5q0 -59 -45 -91t-125 -32q-31 0 -64.5 7t-59 32.5t-38 73.5t-0.5 128zM362 1229q0 25 7.5 38t17.5 25l188 162l19 16q23 18 39 28.5 t51 10.5q33 0 59.5 -25.5t26.5 -64.5q0 -12 -5 -29.5t-22 -37.5l-190 -168q-27 -20 -45.5 -31.5t-53.5 -11.5q-41 0 -66.5 23.5t-25.5 64.5z" />
<glyph unicode="&#xf3;" horiz-adv-x="1073" d="M131 0zM143 367l43 305q10 80 49 149.5t101.5 120.5t150.5 81t197 30t187.5 -30t128 -81t67.5 -120.5t8 -149.5l-43 -305q-12 -80 -50 -150t-101.5 -121t-150 -80.5t-195.5 -29.5t-188 29.5t-128 80.5t-68.5 121t-7.5 150zM426 367q-10 -66 25.5 -103t115.5 -37t126 37 t57 103l43 307q10 63 -27 100t-117 37t-125 -37t-55 -100zM600 1229q0 25 7.5 38t17.5 25l188 162l19 16q23 18 39 28.5t51 10.5q33 0 59.5 -25.5t26.5 -64.5q0 -12 -5 -29.5t-22 -37.5l-190 -168q-27 -20 -45.5 -31.5t-53.5 -11.5q-41 0 -66.5 23.5t-25.5 64.5z" />
<glyph unicode="&#xf8;" horiz-adv-x="1073" d="M136.5 3q-1.5 22 13.5 40l55 68q-84 100 -62 256l43 305q12 80 50 149.5t101.5 120.5t150.5 81t196 30q158 0 260 -64l53 64q14 16 37 21t39 -9q18 -14 19.5 -34.5t-15.5 -39.5l-59 -69q37 -51 52 -115t5 -135l-43 -305q-12 -80 -50 -150t-101.5 -121t-150 -80.5 t-195.5 -29.5q-158 0 -254 59l-54 -63q-14 -16 -35.5 -20.5t-37.5 7.5t-17.5 34zM426 373l338 401q-41 37 -115 37q-80 0 -125 -37t-55 -100zM459 258q36 -31 108 -31q80 0 126 37t57 103l38 282z" />
<glyph unicode="&#xfa;" horiz-adv-x="1124" d="M160 0zM184 387l76 535q8 53 50 87.5t110 34.5t99.5 -34.5t23.5 -87.5l-76 -535q-10 -78 16.5 -121t94.5 -43q61 0 163 43v19.5t2 19.5l86 617q8 53 48.5 87.5t111.5 34.5q72 0 101.5 -34.5t21.5 -87.5l-92 -658q-4 -23 4 -37t25 -34q20 -23 20 -56q0 -35 -14.5 -60.5 t-36 -43t-48 -26.5t-50.5 -9q-41 0 -69 21.5t-46 56.5q-80 -51 -152.5 -70.5t-142.5 -19.5q-186 0 -268 110.5t-58 290.5zM633 1229q0 25 7.5 38t17.5 25l188 162l19 16q23 18 39 28.5t51 10.5q33 0 59.5 -25.5t26.5 -64.5q0 -12 -5 -29.5t-22 -37.5l-190 -168 q-27 -20 -45.5 -31.5t-53.5 -11.5q-41 0 -66.5 23.5t-25.5 64.5z" />
<glyph unicode="&#xfd;" horiz-adv-x="1124" d="M152 0zM162 220.5q-10 70.5 2 154.5l78 547q6 53 48 87.5t109 34.5q68 0 100.5 -34.5t24.5 -87.5l-78 -547q-10 -72 16.5 -113t102.5 -41q47 0 91 12.5t83 40.5l92 648q6 53 46.5 87.5t111.5 34.5q72 0 101.5 -34.5t23.5 -87.5l-139 -990q-12 -82 -47 -153.5 t-94.5 -123.5t-144.5 -83t-197 -31q-43 0 -98.5 7.5t-105.5 25.5t-85 48t-35 73q0 53 44 91t103 38q10 0 25.5 -2t38.5 -10q29 -14 57.5 -24.5t71.5 -10.5q88 0 131 41t53 114l13 88q-96 -33 -205 -32q-111 0 -181.5 29.5t-108.5 81t-48 122zM628 1229q0 25 7.5 38t17.5 25 l188 162l19 16q23 18 39 28.5t51 10.5q33 0 59.5 -25.5t26.5 -64.5q0 -12 -5 -29.5t-22 -37.5l-190 -168q-27 -20 -45.5 -31.5t-53.5 -11.5q-41 0 -66.5 23.5t-25.5 64.5z" />
<glyph unicode="&#x2c6;" horiz-adv-x="892" d="M344 1223q4 27 22.5 49t45.5 43l178 125q16 10 35.5 18t44.5 8t42 -8t29 -18l146 -125q20 -20 32.5 -43t10.5 -49q-6 -39 -41 -67t-76 -28q-25 0 -48.5 13.5t-45 33t-41 42t-37.5 43.5q-25 -20 -51.5 -43t-53 -42.5t-53 -33t-51.5 -13.5q-41 0 -67.5 28t-20.5 67z" />
<glyph unicode="&#x2da;" horiz-adv-x="1251" d="M535 1292q0 51 21.5 96.5t56 79t81.5 54t99 20.5q86 0 140 -57t54 -139q0 -51 -21.5 -97.5t-56.5 -80t-81 -53t-97 -19.5q-88 0 -142 56t-54 140zM672 1309q0 -33 21.5 -56.5t56.5 -23.5q41 0 72.5 29.5t31.5 70.5q0 35 -22.5 58.5t-57.5 23.5q-41 0 -71.5 -30.5 t-30.5 -71.5z" />
<glyph unicode="&#x2dc;" horiz-adv-x="849" d="M258 1260q4 35 23.5 65.5t48 52t62.5 33.5t69 12q43 0 73.5 -13t54 -28.5t44 -28t45.5 -12.5t39 11.5t28.5 26t31 25.5t40.5 11q35 0 61.5 -24.5t26.5 -63.5q0 -35 -20.5 -63.5t-51 -50t-67.5 -34t-68 -12.5q-41 0 -71.5 11.5t-55 27t-45 27.5t-43.5 16q-23 2 -38 -8 t-30.5 -25.5t-32.5 -27.5t-42 -12q-33 0 -58.5 22.5t-23.5 61.5z" />
<glyph unicode="&#x400;" horiz-adv-x="1052" d="M143 0zM150 145l161 1153q4 27 19.5 53.5t40 47t54.5 33t64 12.5h555q53 0 89 -36t36 -83q0 -61 -49 -101t-112 -40h-426l-47 -330h387q51 0 88 -33t37 -84q0 -59 -48.5 -101t-113.5 -42h-387l-47 -334h446q53 0 90 -34t37 -81q0 -59 -49 -102t-113 -43h-543 q-37 0 -70.5 7t-58 23.5t-36 45t-4.5 69.5zM588 1809q0 47 39 78.5t76 31.5q35 0 49 -10t31 -29l12 -16l145 -162q10 -12 11 -32q0 -53 -37 -86t-84 -33q-35 0 -50.5 11t-35.5 32l-144 168q-8 10 -10 23.5t-2 23.5z" />
<glyph unicode="&#x401;" horiz-adv-x="1052" d="M143 0zM150 145l161 1153q4 27 19.5 53.5t40 47t54.5 33t64 12.5h555q53 0 89 -36t36 -83q0 -61 -49 -101t-112 -40h-426l-47 -330h387q51 0 88 -33t37 -84q0 -59 -48.5 -101t-113.5 -42h-387l-47 -334h446q53 0 90 -34t37 -81q0 -59 -49 -102t-113 -43h-543 q-37 0 -70.5 7t-58 23.5t-36 45t-4.5 69.5zM498 1686q0 55 45 97t105 42q53 0 85.5 -31.5t32.5 -78.5q0 -59 -46 -101.5t-107 -42.5q-51 0 -83 34t-32 81zM863 1686q0 29 12 54.5t33.5 44t49 29.5t58.5 11q51 0 84 -31.5t33 -78.5q0 -29 -12.5 -55.5t-34 -46t-48 -31 t-57.5 -11.5q-51 0 -84.5 34t-33.5 81z" />
<glyph unicode="&#x402;" horiz-adv-x="1400" d="M213 1298q0 25 13.5 51.5t36 47t52 34t62.5 13.5h721q51 0 89 -34t38 -85q0 -29 -14.5 -54.5t-37 -45t-52 -30.5t-60.5 -11h-299l-39 -271q55 20 109.5 29.5t101.5 9.5q209 0 319.5 -100t110.5 -299q0 -125 -33 -229.5t-92 -180t-143 -118.5t-187 -43q-92 0 -150.5 40.5 t-58.5 98.5q0 57 46.5 96t105.5 39q33 0 42 -7t36 -7q72 0 108.5 78.5t36.5 197.5q0 96 -47 135t-143 39q-43 0 -94.5 -12t-106.5 -41l-74 -526q-8 -53 -55 -92t-106 -39t-96.5 38.5t-28.5 92.5l151 1071h-135q-57 0 -92 35.5t-35 78.5z" />
<glyph unicode="&#x403;" horiz-adv-x="1030" d="M137 0zM145 115l166 1188q4 27 19.5 51t39 44.5t53.5 33t62 12.5h557q55 0 90 -35t35 -82q0 -31 -13 -56.5t-35.5 -45t-51.5 -30.5t-61 -11h-424l-150 -1069q-8 -53 -55 -92t-107 -39q-59 0 -96 38.5t-29 92.5zM635 1639q0 25 7.5 38t17.5 25l188 162l19 16 q23 18 39 28.5t51 10.5q33 0 59.5 -25.5t26.5 -64.5q0 -12 -5 -29.5t-22 -37.5l-190 -168q-27 -20 -45.5 -31.5t-53.5 -11.5q-41 0 -66.5 23.5t-25.5 64.5z" />
<glyph unicode="&#x404;" horiz-adv-x="1069" d="M143 520l58 406q16 121 61 220t120 169.5t178.5 108.5t238.5 38q78 0 149.5 -16t125.5 -45t86 -66t32 -80q0 -53 -45 -94t-109 -41q-35 0 -50 9.5t-34 21.5l-18 12q-35 23 -74 36t-88 13q-139 0 -203.5 -77.5t-83.5 -208.5l-10 -72h320q51 0 87 -33t36 -82 q0 -59 -47.5 -103t-112.5 -44h-320l-10 -72q-10 -66 -4 -119t29.5 -90t67.5 -57.5t114 -20.5q49 0 91 13.5t83 36.5l25 12q23 10 40 20.5t52 10.5q53 0 86 -33t33 -78q0 -47 -39 -89t-103.5 -74t-146.5 -50t-168 -18q-135 0 -227.5 37.5t-146.5 108.5t-71.5 170t-1.5 220z " />
<glyph unicode="&#x405;" horiz-adv-x="1077" d="M88 0zM88 166q0 27 12.5 51.5t34 45t49 32.5t58.5 12q23 0 47 -7t53 -17q35 -12 83 -26.5t114 -14.5q119 0 179 53t60 149q0 53 -22.5 78t-44.5 35q-31 14 -66 28.5t-76 26.5q-66 20 -130 46t-116.5 67t-84 101.5t-31.5 152.5q0 111 39 201t109.5 152.5t171 96 t221.5 33.5q43 0 108.5 -7t128 -25.5t106.5 -52.5t44 -87t-45.5 -97t-118.5 -44q-29 0 -50.5 6t-46.5 16q-29 10 -63.5 20.5t-87.5 10.5q-41 0 -81 -8t-70.5 -28.5t-49 -55.5t-18.5 -86q0 -55 23.5 -79.5t45.5 -35.5q37 -20 72 -32.5t68 -22.5q66 -23 131 -48.5t117.5 -66.5 t84 -101t31.5 -151q0 -119 -45 -213t-123 -158.5t-183 -99t-226 -34.5q-55 0 -126 10t-134.5 31.5t-107.5 57.5t-44 85z" />
<glyph unicode="&#x406;" horiz-adv-x="546" d="M137 0zM145 113l170 1218q8 51 55.5 91t106.5 40t96 -39t29 -92l-170 -1218q-8 -53 -55 -92t-107 -39q-59 0 -96 38.5t-29 92.5z" />
<glyph unicode="&#x407;" horiz-adv-x="546" d="M137 0zM145 113l170 1218q8 51 55.5 91t106.5 40t96 -39t29 -92l-170 -1218q-8 -53 -55 -92t-107 -39q-59 0 -96 38.5t-29 92.5zM197 1686q0 55 45 97t105 42q53 0 85.5 -31.5t32.5 -78.5q0 -59 -46 -101.5t-107 -42.5q-51 0 -83 34t-32 81zM562 1686q0 29 12 54.5 t33.5 44t49 29.5t58.5 11q51 0 84 -31.5t33 -78.5q0 -29 -12.5 -55.5t-34 -46t-48 -31t-57.5 -11.5q-51 0 -84.5 34t-33.5 81z" />
<glyph unicode="&#x408;" horiz-adv-x="870" d="M47 0zM47 106q0 35 15.5 62t38 45t49 28.5t51.5 10.5q35 0 59.5 -6t63.5 -6q51 0 85.5 16t57 48t35 77t20.5 100l121 850q8 53 54 92t108 39q57 0 95 -39t30 -92l-121 -850q-16 -117 -52 -210t-99.5 -157.5t-160 -98t-233.5 -33.5q-29 0 -65.5 3t-70.5 15t-57.5 37.5 t-23.5 68.5z" />
<glyph unicode="&#x409;" horiz-adv-x="1908" d="M45 94q0 82 50 120t108 38q12 0 21 -3t24 -3h12q25 0 41 30.5t31 92.5l203 927q4 31 20 57.5t41 46t55.5 32t63.5 12.5h518q63 0 105 -44t34 -104l-49 -342h131q217 0 340 -104.5t123 -298.5q0 -102 -32 -200.5t-102.5 -176.5t-184 -126t-277.5 -48h-260 q-33 0 -60.5 12.5t-46 31.5t-27.5 46t-5 57l145 1039h-276l-173 -813q-20 -84 -51.5 -156t-78 -123t-106.5 -79.5t-136 -28.5q-39 0 -75 2t-63.5 12t-45 31.5t-17.5 62.5zM1227 260h131q88 0 141 25.5t82 64.5t38 84t9 84q0 90 -53 133t-156 43h-131z" />
<glyph unicode="&#x40a;" horiz-adv-x="1818" d="M145 115l170 1216q8 51 55.5 91t106.5 40t96 -39t29 -92l-67 -477h397l65 473q8 55 56.5 95t105.5 40t95 -41t30 -94l-53 -373h135q215 0 338 -104.5t123 -298.5q0 -102 -32 -200.5t-102.5 -176.5t-184 -126t-277.5 -48h-260q-33 0 -60.5 12.5t-46 31.5t-28 46t-5.5 57 l62 445h-393l-68 -477q-8 -53 -55 -93t-107 -40q-59 0 -96 39.5t-29 93.5zM1135 260h133q88 0 141 25.5t82 64.5t38 84t9 84q0 90 -53 133t-156 43h-133z" />
<glyph unicode="&#x40b;" horiz-adv-x="1400" d="M213 1296q0 25 13.5 51.5t36 48t52 35t62.5 13.5h721q51 0 89 -34t38 -85q0 -57 -50.5 -99t-113.5 -42h-299l-39 -279q57 25 108.5 36t114.5 11q111 0 195 -31.5t138 -91t75.5 -148.5t5.5 -202l-51 -362q-8 -53 -56.5 -94t-107.5 -41q-57 0 -94 39.5t-29 95.5l49 360 q16 115 -30 165t-150 50q-100 0 -207 -53l-74 -526q-8 -53 -55 -92t-106 -39t-96.5 38.5t-28.5 92.5l151 1071h-135q-57 0 -92 34.5t-35 77.5z" />
<glyph unicode="&#x40c;" horiz-adv-x="1138" d="M137 0zM145 115l170 1216q8 51 55.5 91t106.5 40t96 -39t29 -92l-67 -477h24l488 549q53 59 127 59q61 0 91.5 -41t30.5 -84q0 -25 -9 -42t-25 -40l-478 -532l328 -535q14 -29 14 -55q0 -25 -11 -51.5t-32.5 -49t-51.5 -36.5t-64 -14q-76 0 -111 59l-334 551h-22 l-68 -477q-8 -53 -55 -93t-107 -40q-59 0 -96 39.5t-29 93.5zM723 1639q0 25 7.5 38t17.5 25l188 162l19 16q23 18 39 28.5t51 10.5q33 0 59.5 -25.5t26.5 -64.5q0 -12 -5 -29.5t-22 -37.5l-190 -168q-27 -20 -45.5 -31.5t-53.5 -11.5q-41 0 -66.5 23.5t-25.5 64.5z" />
<glyph unicode="&#x40d;" horiz-adv-x="1288" d="M137 0zM145 121l170 1208q8 53 54.5 93t105.5 40q57 0 96 -40t31 -93l-108 -774q88 123 159.5 224.5t139 196.5t137 193.5t155.5 216.5q27 35 68 55.5t82 20.5q66 0 102.5 -40t28.5 -99l-170 -1208q-8 -53 -54 -93t-106 -40q-29 0 -54.5 10t-42.5 28.5t-25.5 43 t-4.5 51.5l107 766l-592 -828q-25 -33 -64.5 -52t-80.5 -19q-68 0 -105 40.5t-29 98.5zM604 1809q0 47 39 78.5t76 31.5q35 0 49 -10t31 -29l12 -16l145 -162q10 -12 11 -32q0 -53 -37 -86t-84 -33q-35 0 -50.5 11t-35.5 32l-144 168q-8 10 -10 23.5t-2 23.5z" />
<glyph unicode="&#x40e;" horiz-adv-x="1112" d="M113 0zM113 98q0 53 42 95.5t111 46.5q68 4 112 32.5t89 100.5l-248 917q-2 6 -2 14.5v14.5q0 63 47 103t113 40q41 0 73.5 -22.5t43.5 -63.5l116 -442q18 -68 24.5 -139.5t16.5 -143.5q29 72 55.5 141.5t61.5 139.5l236 444q23 41 61.5 63.5t79.5 22.5q51 0 88 -31.5 t37 -82.5q0 -18 -7.5 -36t-11.5 -26l-444 -817q-53 -96 -107.5 -183t-120 -152.5t-148.5 -105.5t-191 -42q-57 0 -92 31.5t-35 80.5zM494 1727q-4 29 4 50.5t23.5 35.5t37 21.5t41.5 7.5q53 0 86 -46q23 -33 53.5 -49t59.5 -16t62.5 15.5t66.5 47.5q47 47 103 48 q41 0 69.5 -28t3.5 -87q-18 -45 -57 -79t-86 -57.5t-97.5 -35.5t-91.5 -12t-87 12t-86 35.5t-69.5 57.5t-35.5 79z" />
<glyph unicode="&#x40f;" horiz-adv-x="1267" d="M147 133l168 1198q8 53 55.5 93t106.5 40q57 0 95 -40t30 -93l-151 -1071h436l151 1071q8 53 56.5 93t105.5 40t95 -40t30 -93l-168 -1198q-8 -53 -56 -93t-106 -40h-221l-29 -211q-8 -53 -55 -92t-106 -39t-96 39t-29 92l28 211h-215q-59 0 -96 40t-29 93z" />
<glyph unicode="&#x410;" horiz-adv-x="1206" d="M45 0zM45 98q0 14 5 31.5t9 28.5l564 1165q29 59 69.5 99t114.5 40t105.5 -39t43.5 -100l236 -1165v-23q0 -70 -49 -111.5t-117 -41.5q-41 0 -79 26.5t-48 69.5l-43 207h-434l-98 -207q-23 -45 -67 -70.5t-81 -25.5q-55 0 -93 31.5t-38 84.5zM528 518h287l-55 350 q-8 45 -8 99.5v101.5q-12 -47 -28.5 -101.5t-37.5 -99.5z" />
<glyph unicode="&#x411;" horiz-adv-x="1169" d="M150 147l163 1156q4 27 18.5 51t38 44.5t53.5 33t62 12.5h598q55 0 90 -35t35 -82q0 -59 -47 -101t-112 -42h-465l-39 -266h174q217 0 341 -100.5t124 -289.5q0 -98 -32 -192t-102.5 -169t-183 -121t-276.5 -46h-301q-33 0 -59.5 12.5t-46 31.5t-29 46t-4.5 57zM453 260 h174q86 0 139 22.5t80.5 57.5t37 76t9.5 78q0 164 -211 163h-174z" />
<glyph unicode="&#x412;" horiz-adv-x="1191" d="M141 0zM150 147l161 1149q10 63 62.5 105.5t118.5 42.5h346q104 0 182 -30t128 -79t74.5 -112.5t24.5 -132.5q0 -66 -20.5 -117t-55 -92t-82 -73t-102.5 -56q41 -18 79 -43t67.5 -60t48 -79t18.5 -101q0 -94 -41 -179t-116.5 -149.5t-181 -102.5t-234.5 -38h-338 q-68 0 -108 44t-31 103zM453 260h229q115 0 172 54.5t57 146.5q0 74 -46 114.5t-120 40.5h-241zM541 879h235q29 0 61.5 11t59.5 33.5t44 57.5t17 82q0 49 -27.5 86t-96.5 37h-250z" />
<glyph unicode="&#x413;" horiz-adv-x="1030" d="M145 115l166 1188q4 27 19.5 51t39 44.5t53.5 33t62 12.5h557q55 0 90 -35t35 -82q0 -31 -13 -56.5t-35.5 -45t-51.5 -30.5t-61 -11h-424l-150 -1069q-8 -53 -55 -92t-107 -39q-59 0 -96 38.5t-29 92.5z" />
<glyph unicode="&#x414;" horiz-adv-x="1368" d="M12 -154l37 263q10 59 53 105t109 46q59 59 103 173t75 274l115 589q6 31 22.5 57.5t41 46t54 32t62.5 12.5h557q33 0 60.5 -12.5t46 -32t27.5 -46t5 -57.5l-145 -1036q63 0 93 -46t20 -105l-37 -263q-8 -55 -55.5 -93t-108.5 -38q-59 0 -95 38t-28 93l23 154h-730 l-22 -154q-8 -55 -54 -93t-106 -38q-59 0 -95 38t-28 93zM520 260h426l131 926h-315l-86 -484q-25 -133 -64 -244.5t-92 -197.5z" />
<glyph unicode="&#x415;" horiz-adv-x="1052" d="M143 0zM150 145l161 1153q4 27 19.5 53.5t40 47t54.5 33t64 12.5h555q53 0 89 -36t36 -83q0 -61 -49 -101t-112 -40h-426l-47 -330h387q51 0 88 -33t37 -84q0 -59 -48.5 -101t-113.5 -42h-387l-47 -334h446q53 0 90 -34t37 -81q0 -59 -49 -102t-113 -43h-543 q-37 0 -70.5 7t-58 23.5t-36 45t-4.5 69.5z" />
<glyph unicode="&#x416;" horiz-adv-x="1609" d="M47 106q0 25 7 41.5t22 34.5l434 539l-283 539q-6 12 -8 25t-2 26q0 25 11.5 51.5t33 49t50 36.5t65.5 14q70 0 110 -61l295 -547l68 477q8 51 55 91t107 40q59 0 96 -39t29 -92l-68 -477l451 547q53 61 127 61q59 0 89.5 -41t30.5 -84q0 -25 -8 -42t-20 -35l-434 -537 l282 -541q10 -23 10 -49q0 -25 -11 -51.5t-32.5 -49t-51 -36.5t-64.5 -14q-76 0 -111 59l-295 549l-67 -475q-8 -53 -55.5 -93t-106.5 -40t-96 39.5t-29 93.5l67 475l-450 -549q-53 -59 -127 -59q-59 0 -90 40.5t-31 83.5z" />
<glyph unicode="&#x417;" horiz-adv-x="1075" d="M68 186q0 27 13 51.5t34.5 43t48 30t55.5 11.5q33 0 62.5 -14.5t63.5 -32t76 -32t101 -14.5q127 0 196.5 63.5t69.5 149.5q0 45 -22.5 76t-60 49.5t-87 26.5t-104.5 12q-27 2 -52.5 5t-45 13.5t-31.5 31t-12 57.5q0 53 15 82.5t39 43t52.5 17.5t55.5 4q55 2 110 15.5 t100.5 39t73 65.5t27.5 93q0 25 -9.5 50.5t-29 46t-53 32.5t-82.5 12q-86 0 -162 -32q-37 -16 -76 -38t-82 -22q-47 0 -80.5 30t-33.5 77q0 53 48 96t120.5 74t157.5 47t159 16q104 0 180 -31.5t125 -84t73.5 -118t24.5 -130.5q0 -121 -70.5 -203t-205.5 -147 q104 -45 163.5 -115t59.5 -176q0 -90 -42 -176t-116.5 -153t-178 -106.5t-228.5 -39.5q-66 0 -142.5 12t-143 37.5t-110.5 64.5t-44 90z" />
<glyph unicode="&#x418;" horiz-adv-x="1310" d="M145 121l170 1208q8 53 54.5 93t105.5 40q57 0 96 -40t31 -93l-108 -774q88 123 159.5 224.5t139 196.5t137 193.5t155.5 216.5q27 35 68 55.5t82 20.5q66 0 102.5 -40t28.5 -99l-170 -1208q-8 -53 -54 -93t-106 -40q-29 0 -54.5 10t-42.5 28.5t-25.5 43t-4.5 51.5 l107 766l-592 -828q-25 -33 -64.5 -52t-80.5 -19q-68 0 -105 40.5t-29 98.5z" />
<glyph unicode="&#x419;" horiz-adv-x="1288" d="M137 0zM145 121l170 1208q8 53 54.5 93t105.5 40q57 0 96 -40t31 -93l-108 -774q88 123 159.5 224.5t139 196.5t137 193.5t155.5 216.5q27 35 68 55.5t82 20.5q66 0 102.5 -40t28.5 -99l-170 -1208q-8 -53 -54 -93t-106 -40q-29 0 -54.5 10t-42.5 28.5t-25.5 43 t-4.5 51.5l107 766l-592 -828q-25 -33 -64.5 -52t-80.5 -19q-68 0 -105 40.5t-29 98.5zM582 1727q-4 29 4 50.5t23.5 35.5t37 21.5t41.5 7.5q53 0 86 -46q23 -33 53.5 -49t59.5 -16t62.5 15.5t66.5 47.5q47 47 103 48q41 0 69.5 -28t3.5 -87q-18 -45 -57 -79t-86 -57.5 t-97.5 -35.5t-91.5 -12t-87 12t-86 35.5t-69.5 57.5t-35.5 79z" />
<glyph unicode="&#x41a;" horiz-adv-x="1138" d="M145 115l170 1216q8 51 55.5 91t106.5 40t96 -39t29 -92l-67 -477h24l488 549q53 59 127 59q61 0 91.5 -41t30.5 -84q0 -25 -9 -42t-25 -40l-478 -532l328 -535q14 -29 14 -55q0 -25 -11 -51.5t-32.5 -49t-51.5 -36.5t-64 -14q-76 0 -111 59l-334 551h-22l-68 -477 q-8 -53 -55 -93t-107 -40q-59 0 -96 39.5t-29 93.5z" />
<glyph unicode="&#x41b;" horiz-adv-x="1361" d="M45 94q0 82 50 120t108 38q12 0 21 -3t24 -3h12q25 0 41 30.5t31 92.5l203 927q12 59 63 103.5t117 44.5h559q63 0 105 -44t34 -104l-166 -1183q-10 -53 -57 -90t-105 -37q-61 0 -97 36.5t-27 92.5l151 1071h-321l-173 -813q-20 -84 -51.5 -156t-78 -123t-106.5 -79.5 t-136 -28.5q-39 0 -75 2t-63.5 12t-45 31.5t-17.5 62.5z" />
<glyph unicode="&#x41c;" horiz-adv-x="1554" d="M129 0zM137 111l170 1216q8 59 56.5 97t111.5 38q102 0 131 -80l264 -723l465 725q29 45 70 61.5t84 16.5q63 0 99 -40t28 -95l-170 -1216q-8 -53 -55.5 -91t-104.5 -38q-59 0 -97 37.5t-30 91.5l98 704l-296 -459q-27 -41 -66 -59t-82 -18q-41 0 -73.5 18t-47.5 59 l-170 459l-98 -704q-4 -27 -19.5 -50.5t-38 -41t-50 -27.5t-58.5 -10q-59 0 -94 37.5t-27 91.5z" />
<glyph unicode="&#x41d;" horiz-adv-x="1269" d="M137 0zM145 115l170 1216q8 51 55.5 91t106.5 40t96 -39t29 -92l-65 -477h436l65 477q8 53 56.5 92t105.5 39t95 -39t30 -92l-170 -1216q-8 -53 -55 -93t-107 -40q-29 0 -53.5 10t-41.5 28.5t-25.5 43t-4.5 51.5l68 477h-436l-68 -477q-8 -53 -55 -93t-107 -40 q-59 0 -96 39.5t-29 93.5z" />
<glyph unicode="&#x41e;" horiz-adv-x="1249" d="M150 0zM166 520l55 406q14 109 58.5 206t118 170.5t181 116.5t250.5 43t238.5 -43t149 -116.5t68.5 -171t1 -205.5l-55 -406q-16 -113 -63.5 -211t-124 -170.5t-182 -114.5t-238.5 -42t-227.5 42t-151 114.5t-75.5 171t-3 210.5zM453 520q-18 -123 29.5 -200.5 t174.5 -77.5t198 77.5t89 200.5l55 406q18 125 -26.5 200.5t-179.5 75.5t-201 -75.5t-84 -200.5z" />
<glyph unicode="&#x41f;" horiz-adv-x="1267" d="M145 115l168 1198q8 53 55.5 93t106.5 40h723q29 0 53.5 -10.5t42 -28.5t25.5 -43t4 -51l-168 -1198q-8 -53 -55 -93t-107 -40q-29 0 -53.5 10t-41.5 28.5t-25.5 43t-4.5 51.5l150 1071h-436l-150 -1071q-8 -53 -55 -93t-107 -40q-59 0 -96 39.5t-29 93.5z" />
<glyph unicode="&#x420;" horiz-adv-x="1167" d="M137 0zM145 117l166 1179q4 31 20.5 57.5t41 46t55.5 32t64 12.5h301q127 0 215 -33t142 -89t78.5 -130t24.5 -156q0 -129 -43 -230t-121.5 -171t-188 -106.5t-241.5 -36.5h-174l-53 -375q-8 -53 -55 -94t-107 -41q-57 0 -95 39.5t-30 95.5zM522 752h174q268 0 269 254 q0 33 -9.5 65.5t-33 57t-64.5 40t-102 15.5h-174z" />
<glyph unicode="&#x421;" horiz-adv-x="1069" d="M127 0zM143 520l58 406q16 121 61 220t120 169.5t178.5 108.5t238.5 38q78 0 149.5 -16t125.5 -45t86 -66t32 -80q0 -53 -45 -94t-109 -41q-35 0 -50 9.5t-34 21.5l-18 12q-35 23 -74 36t-88 13q-139 0 -203.5 -77.5t-83.5 -208.5l-57 -406q-10 -66 -4 -119t29.5 -90 t67.5 -57.5t114 -20.5q49 0 91 13.5t83 36.5l25 12q23 10 40 20.5t52 10.5q53 0 86 -33t33 -78q0 -47 -39 -89t-103.5 -74t-146.5 -50t-168 -18q-135 0 -227.5 37.5t-146.5 108.5t-71.5 170t-1.5 220z" />
<glyph unicode="&#x422;" horiz-adv-x="1071" d="M215 0zM215 1298q0 25 13.5 50.5t36 47t52 35t62.5 13.5h721q51 0 89 -34t38 -85q0 -29 -14.5 -54.5t-37 -45t-52 -30.5t-60.5 -11h-217l-152 -1071q-8 -53 -55 -92t-107 -39q-59 0 -96 38.5t-28 92.5l151 1071h-217q-57 0 -92 33.5t-35 80.5z" />
<glyph unicode="&#x423;" horiz-adv-x="1112" d="M113 98q0 53 42 95.5t111 46.5q68 4 112 32.5t89 100.5l-248 917q-2 6 -2 14.5v14.5q0 63 47 103t113 40q41 0 73.5 -22.5t43.5 -63.5l116 -442q18 -68 24.5 -139.5t16.5 -143.5q29 72 55.5 141.5t61.5 139.5l236 444q23 41 61.5 63.5t79.5 22.5q51 0 88 -31.5t37 -82.5 q0 -18 -7.5 -36t-11.5 -26l-444 -817q-53 -96 -107.5 -183t-120 -152.5t-148.5 -105.5t-191 -42q-57 0 -92 31.5t-35 80.5z" />
<glyph unicode="&#x424;" horiz-adv-x="1617" d="M174 707q0 100 32 198.5t102.5 177t184 126.5t277.5 48h72l10 74q4 27 19.5 50.5t38 42t50 28.5t54.5 10q66 0 99.5 -39t25.5 -92l-11 -74h72q127 0 215 -33.5t142.5 -90t79 -130t24.5 -155.5q0 -129 -43 -231.5t-122 -172t-188.5 -106.5t-242.5 -37h-70l-26 -188 q-8 -53 -55.5 -92t-106.5 -39t-96 38.5t-29 92.5l27 188h-74q-215 0 -338 104.5t-123 301.5zM463 739q0 -90 53 -133t156 -43h71l62 434h-72q-88 0 -141 -25.5t-82 -64.5t-38 -84t-9 -84zM1030 563h72q133 0 201.5 62.5t68.5 191.5q0 33 -9 65.5t-33.5 58.5t-64.5 41 t-102 15h-71z" />
<glyph unicode="&#x425;" horiz-adv-x="1134" d="M39 0zM39 102q0 23 10 45.5t21 36.5l434 566l-254 514q-4 10 -6 24.5t-2 28.5q0 29 13 55.5t35.5 46t50.5 31.5t58 12q47 0 80 -28.5t49 -65.5l177 -381l286 381q23 29 63 61.5t93 32.5q49 0 84 -34.5t35 -81.5q0 -23 -9.5 -42.5t-21.5 -39.5l-395 -514l274 -566 q4 -10 8 -26.5t4 -32.5q0 -27 -14 -52.5t-36.5 -46t-51.5 -32.5t-55 -12q-53 0 -80 26.5t-41 54.5l-209 451l-336 -451v3q-20 -29 -55 -56.5t-88 -27.5q-51 0 -86 36.5t-35 83.5z" />
<glyph unicode="&#x426;" horiz-adv-x="1318" d="M147 133l168 1196q8 53 55.5 93t106.5 40q57 0 95 -40t30 -93l-149 -1069h436l149 1069q8 53 56.5 93t105.5 40t95 -40t30 -93l-149 -1069h20q57 0 95 -39t30 -92l-45 -317q-8 -53 -56.5 -93.5t-105.5 -40.5q-29 0 -53.5 10.5t-42 29t-25.5 43t-4 51.5l27 188h-744 q-59 0 -96 40t-29 93z" />
<glyph unicode="&#x427;" horiz-adv-x="1202" d="M223 965l51 362q8 53 55.5 94t106.5 41q57 0 95 -40t30 -95l-51 -360q-16 -115 29 -165t149 -50q100 0 209 51l74 524q8 53 55 94t107 41q57 0 95 -40t29 -95l-170 -1210q-8 -55 -57 -95t-106 -40q-59 0 -95 40.5t-28 94.5l59 422q-59 -29 -112.5 -38t-108.5 -9 q-227 0 -338 121.5t-78 351.5z" />
<glyph unicode="&#x428;" horiz-adv-x="1638" d="M147 133l168 1196q8 53 55.5 93t106.5 40q57 0 95 -40t30 -93l-149 -1069h256l151 1071q8 51 55.5 91t106.5 40t96 -39t29 -92l-152 -1071h262l150 1069q8 53 56 93t106 40q57 0 95 -40t30 -93l-168 -1196q-8 -53 -56.5 -93t-105.5 -40h-1092q-59 0 -96 40t-29 93z" />
<glyph unicode="&#x429;" horiz-adv-x="1687" d="M147 133l168 1196q8 53 55.5 93t106.5 40q57 0 95 -40t30 -93l-149 -1069h256l151 1071q8 51 55.5 91t106.5 40t96 -39t29 -92l-152 -1071h262l150 1069q8 53 56 93t106 40q57 0 95 -40t30 -93l-150 -1069h21q57 0 95 -39t30 -92l-43 -297q-8 -53 -55.5 -93t-106.5 -40 q-29 0 -53.5 10t-42 28.5t-25.5 43t-4 51.5l24 168h-1112q-59 0 -96 40t-29 93z" />
<glyph unicode="&#x42a;" horiz-adv-x="1441" d="M215 1298q0 57 48 101.5t114 44.5h332q66 0 103.5 -44t29.5 -97l-49 -349h174q217 0 340 -104.5t123 -298.5q0 -102 -32 -200.5t-102.5 -176.5t-184.5 -126t-277 -48h-302q-33 0 -60.5 12.5t-45.5 31.5t-27.5 46t-5.5 57l146 1037h-199q-55 0 -90 32.5t-35 81.5zM694 260 h174q88 0 141.5 25.5t82 64.5t38 84t9.5 84q0 176 -209 176h-174z" />
<glyph unicode="&#x42b;" horiz-adv-x="1607" d="M150 147l165 1180q8 55 57.5 95t106.5 40t94 -41t29 -94l-51 -373h154q217 0 338.5 -104.5t121.5 -298.5q0 -102 -31.5 -200.5t-102 -176.5t-184.5 -126t-278 -48h-280q-33 0 -59.5 12.5t-46 31.5t-29 46t-4.5 57zM453 260h153q88 0 141.5 25.5t82 64.5t38 84t9.5 84 q0 176 -209 176h-154zM1206 113l172 1218q2 27 17.5 50.5t37 42t49 28.5t58.5 10q59 0 95 -39t30 -92l-172 -1218q-8 -53 -55 -92t-107 -39q-59 0 -96 38.5t-29 92.5z" />
<glyph unicode="&#x42c;" horiz-adv-x="1198" d="M150 147l165 1180q8 55 57.5 95t106.5 40t94 -41t29 -94l-51 -373h174q217 0 339 -104.5t122 -298.5q0 -102 -32 -200.5t-102.5 -176.5t-184 -126t-277.5 -48h-301q-33 0 -59.5 12.5t-46 31.5t-29 46t-4.5 57zM453 260h174q88 0 141 25.5t82 64.5t38 84t9 84 q0 176 -209 176h-174z" />
<glyph unicode="&#x42d;" horiz-adv-x="1101" d="M98 190q0 53 45 94.5t109 41.5q35 0 50 -9.5t34 -21.5l18 -12q35 -23 75 -36.5t89 -13.5q137 0 201.5 77t83.5 210l10 72h-319q-53 0 -87 33.5t-34 83.5q0 31 13 57.5t35.5 45.5t50.5 30.5t58 11.5h320l10 72q8 66 4 119t-27.5 89.5t-67.5 57t-114 20.5q-96 0 -178 -49 l-20 -12q-23 -12 -41.5 -21.5t-53.5 -9.5q-53 0 -85.5 33t-32.5 78q0 47 40 89t104.5 73.5t146 50t165.5 18.5q135 0 227.5 -38t146.5 -108.5t71.5 -169.5t1.5 -220l-57 -406q-16 -121 -61.5 -220t-120 -170t-178 -108.5t-238.5 -37.5q-78 0 -149 16t-125 45t-87 65.5 t-33 79.5z" />
<glyph unicode="&#x42e;" horiz-adv-x="1716" d="M145 115l170 1216q8 51 55.5 91t106.5 40t96 -39t29 -92l-67 -477h186l12 90q14 106 55 200.5t113 165t174.5 111.5t241.5 41q137 0 229 -41t144.5 -111.5t67 -164.5t-0.5 -201l-63 -442q-16 -109 -61.5 -203t-119 -165t-175 -111.5t-228.5 -40.5t-217 40.5t-144.5 111.5 t-74 165t-4.5 203l12 92h-182l-68 -479q-8 -53 -55 -93t-107 -40q-59 0 -96 39.5t-29 93.5zM956 502q-16 -117 29 -188.5t162 -71.5t180.5 71.5t79.5 188.5l63 442q16 117 -23.5 187.5t-164.5 70.5t-185.5 -70.5t-76.5 -187.5z" />
<glyph unicode="&#x42f;" horiz-adv-x="1230" d="M117 100q0 18 10 45t27 50l338 421q-111 39 -171.5 123t-60.5 211q0 86 28.5 174t95.5 159t176.5 116t273.5 45h315q31 0 57.5 -12.5t45 -32t27.5 -46t5 -57.5l-166 -1179q-8 -55 -54 -95t-106 -40q-29 0 -54 11t-42.5 29.5t-26 43t-4.5 51.5l66 469h-100l-418 -539 q-51 -63 -129 -63q-20 0 -44 9t-43.5 24.5t-32.5 37t-13 45.5zM549 985q0 -68 45 -104.5t131 -36.5h209l47 340h-197q-76 0 -122 -19.5t-71.5 -49.5t-33.5 -64.5t-8 -65.5z" />
<glyph unicode="&#x430;" horiz-adv-x="1091" d="M121 0zM145 387l33 231q12 92 50 171t100.5 137.5t148.5 91.5t197 33q223 0 305 -107.5t53 -316.5l-53 -381q-4 -23 0 -35t12 -18.5t19.5 -8.5t23.5 -8q37 -16 37 -61q0 -55 -36 -89t-128 -34q-57 0 -95 18.5t-67 67.5q-63 -47 -128.5 -69.5t-151.5 -22.5 q-180 0 -262 110.5t-58 290.5zM428 387q-23 -164 111 -164q61 0 163 43v19.5t3 19.5l51 369q10 72 -22 103.5t-109 31.5q-76 0 -113 -47t-51 -144z" />
<glyph unicode="&#x431;" horiz-adv-x="1034" d="M123 367l78 561q14 98 53 184t104.5 152.5t157.5 108.5t215 54q4 0 23.5 2.5t48 7.5t62.5 13t67 23q6 4 20.5 8t36.5 4q51 0 84 -31t33 -78q0 -63 -50 -99t-117 -53.5t-132.5 -23.5t-95.5 -8q-25 -2 -59 -11.5t-66.5 -36t-60 -74.5t-40.5 -128q88 57 199 57 q98 0 172 -29.5t120 -80.5t64.5 -121t6.5 -150l-35 -251q-12 -80 -50 -150t-101.5 -121t-150.5 -80.5t-196 -29.5t-187.5 29.5t-127.5 80.5t-68.5 121t-7.5 150zM406 367q-10 -66 25.5 -103t115.5 -37t126 37t56 103l35 254q10 63 -21.5 100t-111.5 37q-74 0 -124 -33 t-65 -92z" />
<glyph unicode="&#x432;" horiz-adv-x="1040" d="M143 367l43 305q12 80 50 149.5t101.5 120.5t150.5 81t196 30q92 0 161.5 -22.5t116 -60.5t69 -87t22.5 -105q0 -82 -47.5 -144.5t-174.5 -109.5q86 -35 132.5 -86t46.5 -123q0 -66 -32 -125t-92.5 -105t-147 -72.5t-197.5 -26.5q-113 0 -193 29.5t-129 80.5t-68.5 121 t-7.5 150zM426 306.5q4 -27.5 20.5 -48t45 -33t73.5 -12.5q70 0 118 29.5t48 95.5q0 33 -24.5 61.5t-104.5 28.5h-168l-8 -61q-4 -33 0 -60.5zM461 618h170q78 0 106.5 32t28.5 79t-33 69.5t-86 22.5q-84 0 -126 -42t-52 -105z" />
<glyph unicode="&#x433;" horiz-adv-x="913" d="M115 266q0 117 50 185.5t122.5 109.5t153.5 64.5t145 48.5q41 16 56 33.5t15 42.5q0 66 -108 65q-37 0 -65.5 -7t-53 -14.5t-47.5 -14.5t-49 -7q-16 0 -34.5 3t-35 13.5t-28 28t-11.5 45.5q0 57 36 94t90.5 57.5t116.5 29t116 8.5q180 0 267 -76t87 -201 q0 -82 -25.5 -138t-67.5 -94t-94.5 -62.5t-106.5 -42t-105.5 -33t-89.5 -35.5q-20 -10 -37 -26.5t-17 -49.5q0 -37 32 -54.5t83 -17.5q37 0 69.5 7.5t61.5 15.5t55.5 15t51.5 7q55 0 85.5 -33.5t30.5 -74.5q0 -51 -42 -85t-102.5 -53.5t-128 -26.5t-118.5 -7 q-178 0 -268 75.5t-90 204.5z" />
<glyph unicode="&#x434;" horiz-adv-x="1177" d="M152 399q0 106 33.5 210t98 183.5t158 129t211.5 49.5q49 0 117 -12.5t135 -49.5q4 113 -18.5 177.5t-61.5 96t-88 42t-98 14.5q-23 2 -44.5 6t-34.5 16.5t-18 36t3 62.5q12 55 49 81.5t137 26.5q111 0 188.5 -29.5t128 -78.5t79 -112.5t41 -131t14.5 -135.5t2 -123 q-4 -256 -56.5 -425t-137.5 -269.5t-192.5 -141t-222.5 -40.5q-213 0 -318 114.5t-105 302.5zM438 438q0 -100 41 -155.5t139 -55.5q57 0 98.5 19.5t70 60.5t48 106.5t31.5 155.5l11 86q-41 35 -111 58.5t-135 15.5q-49 -6 -85 -30.5t-59.5 -63.5t-36 -89t-12.5 -108z" />
<glyph unicode="&#x435;" horiz-adv-x="993" d="M131 0zM141 344l47 342q10 78 48 144.5t99.5 115.5t147.5 77t193 28q182 0 270 -82t88 -217q0 -166 -105 -263.5t-341 -97.5q-41 0 -77 3t-79 9l-10 -67q-8 -53 27.5 -84t119.5 -31q49 0 94.5 11.5t98.5 33.5q6 4 20.5 8.5t40.5 4.5q66 0 89.5 -33t23.5 -66 q0 -59 -46 -96t-112.5 -59.5t-138.5 -30.5t-123 -8q-102 0 -177 27.5t-123 75.5t-66.5 113.5t-8.5 141.5zM461 610q49 -4 90 -6t57 -2q66 0 105 29.5t39 107.5q0 49 -28 70.5t-81 21.5q-74 0 -117 -35.5t-53 -97.5z" />
<glyph unicode="&#x436;" horiz-adv-x="1327" d="M45 90q0 16 8 41t25 43l282 340l-188 342q-10 18 -12 36.5t2 35.5q10 53 53 83.5t100 30.5q78 0 111 -59l182 -336h6l39 273q8 51 53.5 87.5t104.5 36.5t96 -36.5t29 -87.5l-39 -273h4l279 332q55 63 127 63q55 0 87.5 -28.5t32.5 -77.5q0 -16 -8 -40t-24 -42l-285 -340 l188 -340q8 -16 12.5 -37.5t0.5 -38.5q-10 -53 -53.5 -82.5t-100.5 -29.5q-74 0 -108 59l-189 342l-39 -274q-8 -53 -54 -90t-105 -37t-95.5 36.5t-27.5 90.5l39 274l-287 -344q-49 -57 -125 -57q-55 0 -88 27.5t-33 76.5z" />
<glyph unicode="&#x437;" horiz-adv-x="917" d="M80 141q0 20 9 44t26.5 44.5t40 32.5t51.5 12q23 0 47.5 -7t34.5 -11q39 -20 73.5 -32.5t98.5 -12.5q70 0 111.5 22.5t41.5 92.5q0 12 -5 27.5t-23.5 27.5t-51 21.5t-88.5 13.5q-25 2 -50 5t-46.5 12t-35 26.5t-13.5 48.5q0 43 16.5 66.5t41 35t54 14.5t56.5 5 q61 6 97 20.5t55.5 32.5t25.5 36.5t6 33.5q0 74 -112 73q-43 0 -73 -8t-53.5 -18.5t-46 -18.5t-49.5 -8q-53 0 -83.5 34t-30.5 75q0 49 38 80.5t94 52t122.5 29t122.5 8.5q180 0 267 -73.5t87 -186.5q0 -88 -45 -150.5t-160 -112.5q86 -33 124 -81t38 -119 q0 -72 -29.5 -134.5t-87 -108.5t-142.5 -72.5t-198 -26.5q-47 0 -108.5 6t-116.5 23.5t-93 47t-38 78.5z" />
<glyph unicode="&#x438;" horiz-adv-x="1124" d="M184 387l76 535q8 53 50 87.5t110 34.5t99.5 -34.5t23.5 -87.5l-76 -535q-10 -78 16.5 -121t94.5 -43q61 0 163 43v19.5t2 19.5l86 617q8 53 48.5 87.5t111.5 34.5q72 0 101.5 -34.5t21.5 -87.5l-92 -658q-4 -23 4 -37t25 -34q20 -23 20 -56q0 -35 -14.5 -60.5t-36 -43 t-48 -26.5t-50.5 -9q-41 0 -69 21.5t-46 56.5q-80 -51 -152.5 -70.5t-142.5 -19.5q-186 0 -268 110.5t-58 290.5z" />
<glyph unicode="&#x439;" horiz-adv-x="1124" d="M160 0zM184 387l76 535q8 53 50 87.5t110 34.5t99.5 -34.5t23.5 -87.5l-76 -535q-10 -78 16.5 -121t94.5 -43q61 0 163 43v19.5t2 19.5l86 617q8 53 48.5 87.5t111.5 34.5q72 0 101.5 -34.5t21.5 -87.5l-92 -658q-4 -23 4 -37t25 -34q20 -23 20 -56q0 -35 -14.5 -60.5 t-36 -43t-48 -26.5t-50.5 -9q-41 0 -69 21.5t-46 56.5q-80 -51 -152.5 -70.5t-142.5 -19.5q-186 0 -268 110.5t-58 290.5zM442 1317q-4 29 4 50.5t23.5 35.5t37 21.5t41.5 7.5q53 0 86 -46q23 -33 53.5 -49t59.5 -16t62.5 15.5t66.5 47.5q47 47 103 48q41 0 69.5 -28 t3.5 -87q-18 -45 -57 -79t-86 -57.5t-97.5 -35.5t-91.5 -12t-87 12t-86 35.5t-69.5 57.5t-35.5 79z" />
<glyph unicode="&#x43a;" horiz-adv-x="974" d="M145 113l113 807q8 51 54 87.5t106 36.5q59 0 95 -36.5t28 -87.5l-39 -273h30l297 338q51 57 125 57q53 0 87 -28.5t34 -77.5q0 -16 -8 -41t-25 -41l-305 -340l209 -340q8 -12 11.5 -28.5t3.5 -32.5q0 -53 -45.5 -90t-110.5 -37q-76 0 -109 57l-202 338h-29l-37 -268 q-8 -53 -54 -90t-106 -37q-59 0 -95 36.5t-28 90.5z" />
<glyph unicode="&#x43b;" horiz-adv-x="1183" d="M45 96q0 37 14.5 64.5t37 46t50 26t54.5 0.5q8 -2 14 -3t12 -1q25 0 41.5 29t30.5 88l133 565q10 47 47 85t88 38h512q35 0 56.5 -13t33 -32.5t13.5 -42t0 -39.5l-111 -794q-8 -53 -54 -90t-106 -37q-59 0 -95 36.5t-28 90.5l97 690h-209l-103 -453q-39 -164 -121.5 -261 t-234.5 -97q-33 0 -63.5 4t-55 16.5t-39 33t-14.5 50.5z" />
<glyph unicode="&#x43c;" horiz-adv-x="1392" d="M145 113l113 800q8 57 55 94t111 37q49 0 77.5 -20t45.5 -55l217 -482l350 482q27 35 61.5 55t84.5 20q63 0 100 -36.5t29 -94.5l-113 -800q-8 -53 -55 -90t-103 -37q-59 0 -95 36.5t-28 90.5l56 397l-191 -285q-27 -35 -63.5 -54t-79.5 -19h-4q-43 0 -74 19t-45 54 l-113 285l-55 -397q-8 -53 -55 -90t-105 -37q-59 0 -94 36.5t-27 90.5z" />
<glyph unicode="&#x43d;" horiz-adv-x="1134" d="M145 113l113 807q8 51 54 87.5t106 36.5q59 0 95 -36.5t28 -87.5l-39 -273h311l39 273q8 51 54 87.5t106 36.5q59 0 95 -36.5t28 -87.5l-113 -807q-8 -53 -54 -90t-106 -37q-59 0 -95 36.5t-28 90.5l43 305h-311l-43 -305q-8 -53 -54 -90t-106 -37q-59 0 -95 36.5 t-28 90.5z" />
<glyph unicode="&#x43e;" horiz-adv-x="1073" d="M131 0zM143 367l43 305q10 80 49 149.5t101.5 120.5t150.5 81t197 30t187.5 -30t128 -81t67.5 -120.5t8 -149.5l-43 -305q-12 -80 -50 -150t-101.5 -121t-150 -80.5t-195.5 -29.5t-188 29.5t-128 80.5t-68.5 121t-7.5 150zM426 367q-10 -66 25.5 -103t115.5 -37t126 37 t57 103l43 307q10 63 -27 100t-117 37t-125 -37t-55 -100z" />
<glyph unicode="&#x43f;" horiz-adv-x="1114" d="M145 113l113 794q6 53 52 90t106 37h573q59 0 95 -36.5t30 -90.5l-113 -794q-8 -53 -54 -90t-105 -37t-95 36.5t-28 90.5l96 690h-291l-96 -690q-8 -53 -54 -90t-106 -37q-59 0 -95 36.5t-28 90.5z" />
<glyph unicode="&#x440;" horiz-adv-x="1081" d="M86 0zM94 -309l146 1040q4 35 2 56.5t-13 39.5q-8 14 -13 26.5t-5 29.5q0 31 14.5 55.5t36 41.5t49 27.5t54.5 10.5q33 0 56 -15.5t42 -41.5q80 41 149.5 65.5t151.5 24.5q88 0 153.5 -30t105.5 -82t54.5 -127t1.5 -163l-32 -237q-12 -90 -43 -168t-84.5 -135.5t-133 -89 t-190.5 -31.5q-41 0 -81 7t-91 34l-47 -338q-8 -53 -50 -89t-110 -36t-99.5 37t-23.5 88zM455 248q86 -27 145 -27q76 0 113 46t51 145l33 237q23 164 -109 164q-63 0 -164 -43v-19.5t-2 -19.5z" />
<glyph unicode="&#x441;" horiz-adv-x="907" d="M133 0zM145 377l39 276q12 82 47 154t94.5 124t143.5 82.5t195 30.5q43 0 99 -6t106.5 -23.5t85 -49t34.5 -82.5q0 -18 -6 -40t-21.5 -40.5t-43 -29.5t-72.5 -11q-16 0 -30.5 2t-35.5 10q-31 12 -58.5 23.5t-74.5 11.5q-86 0 -128 -42t-52 -114l-39 -276 q-10 -72 19.5 -114t115.5 -42q47 0 80 11.5t66 23.5q16 6 29.5 9t35.5 3q70 0 93.5 -28.5t23.5 -61.5q0 -59 -41 -97t-100.5 -59.5t-124 -28.5t-113.5 -7q-109 0 -183.5 30.5t-119.5 83t-60.5 124t-3.5 153.5z" />
<glyph unicode="&#x442;" horiz-adv-x="1675" d="M145 0zM154 113l86 620q8 51 4 63.5t-8 22.5q-14 23 -19.5 38t-5.5 30q0 59 47 95t104 36q35 0 59.5 -15.5t41.5 -41.5q76 43 149.5 66.5t139.5 23.5q125 0 225 -90q90 45 163.5 67.5t157.5 22.5q182 0 272.5 -100.5t67.5 -266.5l-61 -432q-4 -33 -1 -47.5t21 -36.5 q10 -14 18.5 -25.5t8.5 -33.5q0 -59 -45 -91t-125 -32q-31 0 -64.5 7t-59 32.5t-38 73.5t-0.5 128l64 453q8 53 -17.5 91t-83.5 38q-41 0 -84 -18.5t-90 -53.5q-2 -14 -2 -26.5t-2 -26.5l-80 -571q-8 -53 -48 -89t-111 -36q-72 0 -101.5 35.5t-21.5 89.5l73 530 q10 72 -2 119t-79 47q-39 0 -86.5 -15.5t-96.5 -37.5v-11.5t-2 -11.5l-86 -620q-8 -53 -48 -89t-112 -36t-101.5 35.5t-20.5 89.5z" />
<glyph unicode="&#x443;" horiz-adv-x="1124" d="M152 0zM162 220.5q-10 70.5 2 154.5l78 547q6 53 48 87.5t109 34.5q68 0 100.5 -34.5t24.5 -87.5l-78 -547q-10 -72 16.5 -113t102.5 -41q47 0 91 12.5t83 40.5l92 648q6 53 46.5 87.5t111.5 34.5q72 0 101.5 -34.5t23.5 -87.5l-139 -990q-12 -82 -47 -153.5 t-94.5 -123.5t-144.5 -83t-197 -31q-43 0 -98.5 7.5t-105.5 25.5t-85 48t-35 73q0 53 44 91t103 38q10 0 25.5 -2t38.5 -10q29 -14 57.5 -24.5t71.5 -10.5q88 0 131 41t53 114l13 88q-96 -33 -205 -32q-111 0 -181.5 29.5t-108.5 81t-48 122z" />
<glyph unicode="&#x444;" horiz-adv-x="1359" d="M156 457l20 139q12 90 51 168t103.5 138.5t152.5 98t201 46.5l43 305q8 51 53 89t105 38q59 0 96 -37t29 -90l-43 -305q111 -8 189.5 -45t125.5 -97.5t64.5 -139.5t5.5 -169l-21 -139q-14 -94 -54 -176t-104.5 -144.5t-153.5 -100.5t-202 -46l-41 -297q-8 -53 -54 -90 t-106 -37q-59 0 -95 37t-27 90l41 297q-109 8 -187 47t-126 100.5t-64.5 143t-1.5 176.5zM418 457q-12 -90 24.5 -147.5t126.5 -76.5l80 568q-96 -16 -147 -68.5t-64 -134.5zM852 233q96 16 150.5 74t66.5 150l21 141q12 84 -27 137t-131 68z" />
<glyph unicode="&#x445;" horiz-adv-x="964" d="M45 0zM45 98q0 41 31 76q84 94 157.5 176t157.5 176q-51 82 -100 161t-101 165q-8 12 -11 27.5t-3 29.5q0 53 47 94t113 41q59 0 86 -29.5t43 -58.5l125 -211l196 228q29 33 58.5 52t79.5 19q45 0 84 -31.5t39 -80.5q0 -12 -6.5 -33.5t-24.5 -42.5l-293 -330l215 -348 q8 -10 10 -23.5t2 -25.5q0 -57 -46 -100t-116 -43q-49 0 -72.5 17t-45.5 56q-23 39 -39.5 68t-32.5 55.5t-33.5 56t-40.5 68.5q-57 -66 -114.5 -130t-112.5 -130q-55 -61 -125 -61q-55 0 -91 30.5t-36 81.5z" />
<glyph unicode="&#x446;" horiz-adv-x="1202" d="M184 387l76 535q8 53 50 87.5t110 34.5t99.5 -34.5t23.5 -87.5l-76 -535q-10 -78 16.5 -121t87.5 -43q72 0 174 43q-2 20 -1 41t6 43l79 572q8 53 48.5 87.5t111.5 34.5q72 0 101.5 -34.5t21.5 -87.5l-80 -572q-18 -127 27 -127q59 0 95 -36.5t28 -90.5l-37 -274 q-8 -53 -54.5 -90t-105.5 -37t-95 37t-28 90l27 192q-18 6 -32.5 16.5t-29.5 20.5q-92 -35 -169.5 -50t-141.5 -15q-96 0 -164.5 28.5t-109.5 82t-55.5 127t-2.5 163.5z" />
<glyph unicode="&#x447;" horiz-adv-x="1060" d="M184 662l37 258q8 51 53 87.5t105 36.5q59 0 96 -36.5t29 -87.5l-37 -258q-2 -18 -1 -36t12 -31t32.5 -21.5t60.5 -8.5q20 0 62.5 4t95.5 13l47 338q8 51 53 87.5t105 36.5q59 0 96 -36.5t29 -87.5l-115 -807q-8 -53 -53 -90t-105 -37q-59 0 -96 36.5t-28 90.5l34 245 q-45 -16 -83 -19t-66 -3q-215 0 -300 86t-63 240z" />
<glyph unicode="&#x448;" horiz-adv-x="1662" d="M178 346l80 576q8 53 50 87.5t110 34.5t99.5 -34.5t23.5 -87.5l-80 -572q-8 -53 17.5 -91t88.5 -38q33 0 77 19.5t91 52.5q-2 12 0 25.5t4 27.5l80 576q8 53 50 87.5t110 34.5t99.5 -34.5t23.5 -87.5l-74 -535q-10 -72 2 -119t82 -47q35 0 82 15.5t96 37.5l90 648 q8 53 50.5 87.5t109.5 34.5q68 0 99.5 -34.5t23.5 -87.5l-92 -658q-4 -25 2 -40t22 -31q25 -25 25 -62q0 -31 -14.5 -55.5t-36 -42t-48 -26.5t-53.5 -9q-39 0 -66.5 19.5t-45.5 48.5q-78 -39 -150.5 -62.5t-140.5 -23.5q-125 0 -225 88q-86 -41 -164 -64.5t-146 -23.5 q-197 0 -285.5 101t-66.5 265z" />
<glyph unicode="&#x449;" horiz-adv-x="1744" d="M178 346l80 576q8 53 50 87.5t110 34.5t99.5 -34.5t23.5 -87.5l-80 -572q-8 -53 17.5 -91t88.5 -38q33 0 76 17.5t92 46.5q-2 14 0 29.5t4 31.5l80 576q8 53 50 87.5t110 34.5t99.5 -34.5t23.5 -87.5l-74 -535q-10 -72 2 -119t82 -47q39 0 87 15.5t97 39.5v36t4 38 l80 572q8 53 48 87.5t112 34.5t101.5 -34.5t21.5 -87.5l-80 -572q-18 -127 27 -127q59 0 96 -36.5t29 -90.5l-39 -274q-8 -53 -54.5 -90t-105.5 -37t-95 37t-28 90l27 192q-31 10 -60 37q-70 -29 -150.5 -50t-164.5 -21q-125 0 -225 88q-86 -41 -164 -64.5t-146 -23.5 q-197 0 -285.5 101t-66.5 265z" />
<glyph unicode="&#x44a;" horiz-adv-x="1193" d="M154 903q0 55 47 93t106 38h256q59 0 95 -38t28 -89l-33 -227q74 23 152 22q102 0 179 -28.5t125 -77.5t67.5 -115.5t7.5 -142.5t-50 -140.5t-99.5 -111.5t-145.5 -73.5t-184 -26.5q-109 0 -185 29.5t-123 80.5t-64.5 121t-4.5 150l59 430h-115q-53 0 -85.5 29.5 t-32.5 76.5zM606 334q0 -49 33 -78t98 -29q78 0 122 37t44 98q0 47 -34.5 73t-110.5 26q-66 0 -109 -33t-43 -94z" />
<glyph unicode="&#x44b;" horiz-adv-x="1482" d="M180 367l78 553q6 51 52 87.5t106 36.5q59 0 95 -36.5t30 -87.5l-35 -240q74 23 151 22q102 0 179 -28.5t125.5 -77.5t68 -115.5t6.5 -142.5q-12 -76 -50 -140.5t-99.5 -111.5t-145.5 -73.5t-184 -26.5q-109 0 -184.5 29.5t-122.5 80.5t-64.5 121t-5.5 150zM459 334 q0 -49 32.5 -78t98.5 -29q78 0 122 37t44 98q0 47 -36 73t-110 26q-66 0 -108.5 -33t-42.5 -94zM1083 113l115 807q6 51 52 87.5t106 36.5q59 0 95 -36.5t30 -87.5l-115 -807q-8 -53 -53 -90t-105 -37q-59 0 -96 36.5t-29 90.5z" />
<glyph unicode="&#x44c;" horiz-adv-x="1048" d="M180 367l78 553q6 51 52 87.5t106 36.5q59 0 95 -36.5t30 -87.5l-35 -240q74 23 151 22q102 0 179 -28.5t125.5 -77.5t68 -115.5t6.5 -142.5q-12 -76 -50 -140.5t-99.5 -111.5t-145.5 -73.5t-184 -26.5q-109 0 -184.5 29.5t-122.5 80.5t-64.5 121t-5.5 150zM459 334 q0 -49 32.5 -78t98.5 -29q78 0 122 37t44 98q0 47 -36 73t-110 26q-66 0 -108.5 -33t-42.5 -94z" />
<glyph unicode="&#x44d;" horiz-adv-x="886" d="M59 141q0 51 44 89t104 38q10 0 24.5 -2t32.5 -8q35 -14 69 -25.5t87 -11.5q76 0 109.5 47t56.5 127l2 6h-252q-53 0 -87 30t-34 77q0 55 46 93t108 38h252q10 82 -16.5 126t-100.5 44q-53 0 -92 -11.5t-76 -25.5q-41 -10 -60 -10q-51 0 -82.5 31.5t-31.5 72.5 q0 51 43 86t104.5 55.5t129 28.5t114.5 8q106 0 179 -31.5t115 -87t55 -130t1 -160.5l-35 -240q-12 -86 -46 -160.5t-91 -130t-139 -87t-189 -31.5q-45 0 -104 7t-112.5 25.5t-90.5 48t-37 74.5z" />
<glyph unicode="&#x44e;" horiz-adv-x="1517" d="M145 113l113 807q8 51 54 87.5t106 36.5q59 0 95 -36.5t28 -87.5l-39 -273h164l4 23q14 80 52 149.5t99.5 120.5t145.5 81t190 30t183 -30t125 -81t66.5 -120.5t6.5 -149.5l-43 -303q-12 -80 -49 -150t-99.5 -121t-147.5 -80.5t-191 -29.5t-184.5 29.5t-125.5 80.5 t-65.5 121t-5.5 150l8 51h-164l-43 -305q-8 -53 -54 -90t-106 -37q-59 0 -95 36.5t-28 90.5zM909 367q-10 -66 23.5 -103t109.5 -37t118 37t52 103l43 305q10 63 -22.5 100t-108.5 37t-118.5 -37t-53.5 -100z" />
<glyph unicode="&#x44f;" horiz-adv-x="1079" d="M96 90q0 16 9.5 42t25.5 42l211 238q-82 31 -119 93t-37 150q0 170 114 274.5t337 104.5h315q59 0 96 -38t29 -89l-112 -794q-8 -53 -54.5 -90t-105.5 -37t-95 36.5t-28 90.5l37 264h-84l-293 -334q-49 -57 -125 -57q-55 0 -88 27.5t-33 76.5zM469 690q0 -31 26.5 -56.5 t108.5 -25.5h148l26 193h-170q-139 0 -139 -111z" />
<glyph unicode="&#x450;" horiz-adv-x="993" d="M131 0zM141 344l47 342q10 78 48 144.5t99.5 115.5t147.5 77t193 28q182 0 270 -82t88 -217q0 -166 -105 -263.5t-341 -97.5q-41 0 -77 3t-79 9l-10 -67q-8 -53 27.5 -84t119.5 -31q49 0 94.5 11.5t98.5 33.5q6 4 20.5 8.5t40.5 4.5q66 0 89.5 -33t23.5 -66 q0 -59 -46 -96t-112.5 -59.5t-138.5 -30.5t-123 -8q-102 0 -177 27.5t-123 75.5t-66.5 113.5t-8.5 141.5zM461 610q49 -4 90 -6t57 -2q66 0 105 29.5t39 107.5q0 49 -28 70.5t-81 21.5q-74 0 -117 -35.5t-53 -97.5zM489 1399q0 47 39 78.5t76 31.5q35 0 49 -10t31 -29 l12 -16l145 -162q10 -12 11 -32q0 -53 -37 -86t-84 -33q-35 0 -50.5 11t-35.5 32l-144 168q-8 10 -10 23.5t-2 23.5z" />
<glyph unicode="&#x451;" horiz-adv-x="993" d="M131 0zM141 344l47 342q10 78 48 144.5t99.5 115.5t147.5 77t193 28q182 0 270 -82t88 -217q0 -166 -105 -263.5t-341 -97.5q-41 0 -77 3t-79 9l-10 -67q-8 -53 27.5 -84t119.5 -31q49 0 94.5 11.5t98.5 33.5q6 4 20.5 8.5t40.5 4.5q66 0 89.5 -33t23.5 -66 q0 -59 -46 -96t-112.5 -59.5t-138.5 -30.5t-123 -8q-102 0 -177 27.5t-123 75.5t-66.5 113.5t-8.5 141.5zM360 1276q0 55 45 97t105 42q53 0 85.5 -31.5t32.5 -78.5q0 -59 -46 -101.5t-107 -42.5q-51 0 -83 34t-32 81zM461 610q49 -4 90 -6t57 -2q66 0 105 29.5t39 107.5 q0 49 -28 70.5t-81 21.5q-74 0 -117 -35.5t-53 -97.5zM725 1276q0 29 12 54.5t33.5 44t49 29.5t58.5 11q51 0 84 -31.5t33 -78.5q0 -29 -12.5 -55.5t-34 -46t-48 -31t-57.5 -11.5q-51 0 -84.5 34t-33.5 81z" />
<glyph unicode="&#x452;" horiz-adv-x="1273" d="M203 1214q0 45 39 79t92 34h139l4 35q6 49 52 88t106 39q59 0 94 -37t29 -90l-4 -35h131q45 0 73.5 -26.5t28.5 -65.5q0 -43 -39 -77t-90 -34h-133l-27 -176q98 47 203 47q98 0 166 -30.5t106.5 -86t50 -133t-0.5 -170.5l-60 -425q-16 -121 -53 -220.5t-95.5 -171 t-138 -111.5t-182.5 -40q-47 0 -77.5 14t-36.5 53q-6 35 5 60.5t31.5 43t44 28t46.5 16.5q59 16 103 77.5t60 182.5l70 491q12 92 -8.5 135.5t-83.5 43.5q-43 0 -94.5 -17.5t-91.5 -50.5l-80 -571q-8 -53 -53.5 -90t-104.5 -37t-95 36.5t-28 90.5l141 1011h-135 q-47 0 -75.5 27t-28.5 63z" />
<glyph unicode="&#x453;" horiz-adv-x="913" d="M115 0zM115 266q0 117 50 185.5t122.5 109.5t153.5 64.5t145 48.5q41 16 56 33.5t15 42.5q0 66 -108 65q-37 0 -65.5 -7t-53 -14.5t-47.5 -14.5t-49 -7q-16 0 -34.5 3t-35 13.5t-28 28t-11.5 45.5q0 57 36 94t90.5 57.5t116.5 29t116 8.5q180 0 267 -76t87 -201 q0 -82 -25.5 -138t-67.5 -94t-94.5 -62.5t-106.5 -42t-105.5 -33t-89.5 -35.5q-20 -10 -37 -26.5t-17 -49.5q0 -37 32 -54.5t83 -17.5q37 0 69.5 7.5t61.5 15.5t55.5 15t51.5 7q55 0 85.5 -33.5t30.5 -74.5q0 -51 -42 -85t-102.5 -53.5t-128 -26.5t-118.5 -7 q-178 0 -268 75.5t-90 204.5zM534 1229q0 25 7.5 38t17.5 25l188 162l19 16q23 18 39 28.5t51 10.5q33 0 59.5 -25.5t26.5 -64.5q0 -12 -5 -29.5t-22 -37.5l-190 -168q-27 -20 -45.5 -31.5t-53.5 -11.5q-41 0 -66.5 23.5t-25.5 64.5z" />
<glyph unicode="&#x454;" horiz-adv-x="907" d="M145 377l39 276q12 82 47 154t94.5 124t143.5 82.5t195 30.5q43 0 99 -6t106.5 -23.5t85 -49t34.5 -82.5q0 -18 -6 -40t-21.5 -40.5t-43 -29.5t-72.5 -11q-16 0 -30.5 2t-35.5 10q-31 12 -58.5 23.5t-74.5 11.5q-86 0 -128 -42t-52 -114l-2 -14h252q53 0 86 -29.5 t33 -77.5q0 -55 -45.5 -93t-106.5 -38h-252l-4 -24q-12 -72 18.5 -114t116.5 -42q47 0 80 11.5t66 23.5q16 6 29.5 9t35.5 3q70 0 93.5 -28.5t23.5 -61.5q0 -59 -41 -97t-100.5 -59.5t-124 -28.5t-113.5 -7q-109 0 -183.5 30.5t-119.5 83t-60.5 124t-3.5 153.5z" />
<glyph unicode="&#x455;" horiz-adv-x="913" d="M96 0zM96 135q0 47 42 89t108 42q25 0 49 -7t51 -15t57.5 -15.5t67.5 -7.5q59 0 98 22.5t39 69.5q0 23 -10 35t-25 21q-43 27 -108.5 46t-127 50t-105.5 83t-44 144q0 78 29 143.5t84 113.5t138 75t192 27q47 0 101 -7.5t100.5 -25t77 -48t30.5 -77.5q0 -39 -14.5 -62.5 t-36 -37t-45 -17.5t-41.5 -4q-27 0 -48.5 7t-43 14.5t-48 14.5t-63.5 7q-129 0 -129 -82q0 -37 51 -59q49 -23 112.5 -43.5t120 -53t96.5 -86t40 -141.5q0 -166 -117 -265t-332 -99q-47 0 -107.5 6t-113.5 23.5t-89 46t-36 73.5z" />
<glyph unicode="&#x456;" horiz-adv-x="583" d="M168 0zM180 227l99 693q8 51 54 87.5t105 36.5t95 -36.5t28 -87.5l-94 -668q-4 -33 -2 -47.5t20 -36.5q10 -14 18.5 -25.5t8.5 -33.5q0 -59 -45 -91t-125 -32q-31 0 -64.5 7t-59 32.5t-38 73.5t-0.5 128zM315 1305q0 33 14.5 61.5t40 50t58.5 33.5t70 12q61 0 100 -38 t39 -91q0 -33 -14.5 -61.5t-39 -50t-57 -33.5t-69.5 -12q-63 0 -102.5 37.5t-39.5 91.5z" />
<glyph unicode="&#x457;" horiz-adv-x="583" d="M156 1276q0 55 45 97t104 42q53 0 86 -31.5t33 -78.5q0 -59 -46 -101.5t-108 -42.5q-51 0 -82.5 34t-31.5 81zM180 227l99 693q8 51 54 87.5t105 36.5t95 -36.5t28 -87.5l-94 -668q-4 -33 -2 -47.5t20 -36.5q10 -14 18.5 -25.5t8.5 -33.5q0 -59 -45 -91t-125 -32 q-31 0 -64.5 7t-59 32.5t-38 73.5t-0.5 128zM520 1276q0 29 12.5 54.5t34 44t49 29.5t58.5 11q51 0 84 -31.5t33 -78.5q0 -29 -12.5 -55.5t-34 -46t-48 -31t-57.5 -11.5q-51 0 -85 34t-34 81z" />
<glyph unicode="&#x458;" horiz-adv-x="583" d="M-129 -326q-6 35 5 60.5t31.5 44t44 29t46.5 14.5q59 10 99 47t50 111l132 940q8 51 54 87.5t105 36.5t95 -36.5t28 -87.5l-131 -934q-12 -88 -49 -162t-95.5 -126t-134 -81t-165.5 -29q-47 0 -78 23.5t-37 62.5zM0 0zM315 1305q0 33 14.5 61.5t39 50t57.5 33.5t70 12 q63 0 102 -38t39 -91q0 -33 -14.5 -61.5t-39 -50t-57 -33.5t-69.5 -12q-63 0 -102.5 37.5t-39.5 91.5z" />
<glyph unicode="&#x459;" horiz-adv-x="1609" d="M45 90q0 39 14.5 65.5t36 44t49 25.5t56.5 8q6 0 13 -1t13 -1q47 0 72 115l133 565q10 47 47 85t88 38h471q35 0 56.5 -13t33 -32.5t14.5 -42t1 -39.5l-35 -250h125q195 0 280.5 -72.5t85.5 -205.5q0 -168 -109.5 -273.5t-322.5 -105.5h-295q-59 0 -95 38t-27 89l94 676 h-168l-103 -453q-39 -164 -121.5 -261t-234.5 -97q-33 0 -63.5 2t-55 11t-39 28.5t-14.5 56.5zM1047 233h149q121 0 121 113q0 31 -22.5 55.5t-92.5 24.5h-127z" />
<glyph unicode="&#x45a;" horiz-adv-x="1560" d="M145 113l113 807q8 51 54 87.5t106 36.5q59 0 95 -36.5t28 -87.5l-39 -273h270l39 273q8 51 54 87.5t106 36.5q59 0 95 -36.5t28 -87.5l-39 -273h129q193 0 279.5 -70.5t86.5 -199.5q0 -84 -27.5 -152.5t-82 -119t-135 -78t-187.5 -27.5h-295q-59 0 -95 38t-28 89l41 291 h-270l-43 -305q-8 -53 -54 -90t-106 -37q-59 0 -95 36.5t-28 90.5zM997 233h150q119 0 119 109q0 29 -21.5 52.5t-93.5 23.5h-127z" />
<glyph unicode="&#x45b;" horiz-adv-x="1273" d="M203 1214q0 45 39 79t92 34h139l4 35q6 49 52 88t106 39q59 0 94 -37t29 -90l-4 -35h131q45 0 73.5 -26.5t28.5 -65.5q0 -43 -39 -77t-90 -34h-133l-25 -163q94 35 201 34q98 0 166 -26.5t107.5 -73.5t53 -112.5t3.5 -145.5l-53 -385q-4 -33 -2 -47.5t20 -36.5 q10 -14 19.5 -25.5t9.5 -33.5q0 -59 -46 -91t-126 -32q-31 0 -65 7t-59.5 32.5t-37.5 73.5t0 128l57 408q8 59 -14.5 88t-85.5 29q-43 0 -94.5 -17.5t-91.5 -50.5l-80 -571q-8 -53 -53.5 -90t-104.5 -37t-95 36.5t-28 90.5l141 1011h-135q-47 0 -75.5 27t-28.5 63z" />
<glyph unicode="&#x45c;" horiz-adv-x="974" d="M137 0zM145 113l113 807q8 51 54 87.5t106 36.5q59 0 95 -36.5t28 -87.5l-39 -273h30l297 338q51 57 125 57q53 0 87 -28.5t34 -77.5q0 -16 -8 -41t-25 -41l-305 -340l209 -340q8 -12 11.5 -28.5t3.5 -32.5q0 -53 -45.5 -90t-110.5 -37q-76 0 -109 57l-202 338h-29 l-37 -268q-8 -53 -54 -90t-106 -37q-59 0 -95 36.5t-28 90.5zM573 1229q0 25 7.5 38t17.5 25l188 162l19 16q23 18 39 28.5t51 10.5q33 0 59.5 -25.5t26.5 -64.5q0 -12 -5 -29.5t-22 -37.5l-190 -168q-27 -20 -45.5 -31.5t-53.5 -11.5q-41 0 -66.5 23.5t-25.5 64.5z" />
<glyph unicode="&#x45d;" horiz-adv-x="1124" d="M160 0zM184 387l76 535q8 53 50 87.5t110 34.5t99.5 -34.5t23.5 -87.5l-76 -535q-10 -78 16.5 -121t94.5 -43q61 0 163 43v19.5t2 19.5l86 617q8 53 48.5 87.5t111.5 34.5q72 0 101.5 -34.5t21.5 -87.5l-92 -658q-4 -23 4 -37t25 -34q20 -23 20 -56q0 -35 -14.5 -60.5 t-36 -43t-48 -26.5t-50.5 -9q-41 0 -69 21.5t-46 56.5q-80 -51 -152.5 -70.5t-142.5 -19.5q-186 0 -268 110.5t-58 290.5zM526 1399q0 47 39 78.5t76 31.5q35 0 49 -10t31 -29l12 -16l145 -162q10 -12 11 -32q0 -53 -37 -86t-84 -33q-35 0 -50.5 11t-35.5 32l-144 168 q-8 10 -10 23.5t-2 23.5z" />
<glyph unicode="&#x45e;" horiz-adv-x="1124" d="M152 0zM162 220.5q-10 70.5 2 154.5l78 547q6 53 48 87.5t109 34.5q68 0 100.5 -34.5t24.5 -87.5l-78 -547q-10 -72 16.5 -113t102.5 -41q47 0 91 12.5t83 40.5l92 648q6 53 46.5 87.5t111.5 34.5q72 0 101.5 -34.5t23.5 -87.5l-139 -990q-12 -82 -47 -153.5 t-94.5 -123.5t-144.5 -83t-197 -31q-43 0 -98.5 7.5t-105.5 25.5t-85 48t-35 73q0 53 44 91t103 38q10 0 25.5 -2t38.5 -10q29 -14 57.5 -24.5t71.5 -10.5q88 0 131 41t53 114l13 88q-96 -33 -205 -32q-111 0 -181.5 29.5t-108.5 81t-48 122zM442 1317q-4 29 4 50.5 t23.5 35.5t37 21.5t41.5 7.5q53 0 86 -46q23 -33 53.5 -49t59.5 -16t62.5 15.5t66.5 47.5q47 47 103 48q41 0 69.5 -28t3.5 -87q-18 -45 -57 -79t-86 -57.5t-97.5 -35.5t-91.5 -12t-87 12t-86 35.5t-69.5 57.5t-35.5 79z" />
<glyph unicode="&#x45f;" horiz-adv-x="1114" d="M147 127l111 795q8 53 54 90t106 37q59 0 95 -37t28 -90l-97 -691h291l96 691q8 53 54.5 90t105.5 37t95 -37t28 -90l-110 -795q-8 -53 -54.5 -90t-105.5 -37h-144l-24 -170q-8 -53 -54.5 -90t-105.5 -37t-95 37t-28 90l25 170h-148q-59 0 -95 37t-28 90z" />
<glyph unicode="&#x462;" horiz-adv-x="1400" d="M205 1229q0 20 11 42.5t30.5 40t45 29t52.5 11.5h156l10 73q8 51 55 91t107 40q59 0 96 -38.5t29 -92.5l-11 -73h320q45 0 78 -30t33 -71q0 -49 -43.5 -83.5t-98.5 -34.5h-319l-31 -215h174q217 0 341 -100.5t124 -289.5q0 -98 -32 -192t-102.5 -169t-183 -121 t-276.5 -46h-301q-33 0 -59.5 12.5t-46 31.5t-28.5 46t-5 57l139 986h-156q-47 0 -77.5 29.5t-30.5 66.5zM633 260h174q86 0 139 22.5t81 57.5t37 76t9 78q0 164 -211 163h-174z" />
<glyph unicode="&#x463;" horiz-adv-x="1273" d="M190 1126q0 45 39 78t93 33h139l14 106q8 53 53 90t105 37q59 0 96 -36.5t29 -90.5l-15 -106h129q45 0 74 -26.5t29 -65.5q0 -43 -40 -77t-91 -34h-131l-39 -284h147q201 0 291 -81t90 -225q0 -98 -28.5 -179t-87 -140t-144.5 -92t-201 -33h-315q-59 0 -95 38t-28 89 l127 907h-137q-47 0 -75 25.5t-28 66.5zM600 233h170q74 0 112 45.5t38 129.5q0 41 -27 75.5t-105 34.5h-147z" />
<glyph unicode="&#x490;" horiz-adv-x="1030" d="M145 115l166 1188q4 27 19.5 51t39 44.5t53.5 33t62 12.5h412l18 137q8 51 56.5 92t107.5 41t95 -40t28 -93l-37 -266q-8 -55 -54 -92t-105 -37h-424l-150 -1071q-8 -53 -55 -92t-107 -39q-59 0 -96 38.5t-29 92.5z" />
<glyph unicode="&#x491;" horiz-adv-x="921" d="M145 113l113 802q8 51 51 85t101 34h319l21 144q8 53 54 90t105 37t95 -37t28 -90l-37 -256q-6 -53 -52 -89t-105 -36h-314l-96 -684q-8 -53 -54 -90t-106 -37q-59 0 -95 36.5t-28 90.5z" />
<glyph unicode="&#x2000;" horiz-adv-x="959" />
<glyph unicode="&#x2001;" horiz-adv-x="1919" />
<glyph unicode="&#x2002;" horiz-adv-x="959" />
<glyph unicode="&#x2003;" horiz-adv-x="1919" />
<glyph unicode="&#x2004;" horiz-adv-x="639" />
<glyph unicode="&#x2005;" horiz-adv-x="479" />
<glyph unicode="&#x2006;" horiz-adv-x="319" />
<glyph unicode="&#x2007;" horiz-adv-x="319" />
<glyph unicode="&#x2008;" horiz-adv-x="239" />
<glyph unicode="&#x2009;" horiz-adv-x="383" />
<glyph unicode="&#x200a;" horiz-adv-x="106" />
<glyph unicode="&#x2010;" horiz-adv-x="899" d="M139 614q0 51 39 88t98 37h510q57 0 96.5 -37t39.5 -88q0 -53 -39 -89t-97 -36h-510q-59 0 -98 36t-39 89z" />
<glyph unicode="&#x2011;" horiz-adv-x="899" d="M139 614q0 51 39 88t98 37h510q57 0 96.5 -37t39.5 -88q0 -53 -39 -89t-97 -36h-510q-59 0 -98 36t-39 89z" />
<glyph unicode="&#x2012;" horiz-adv-x="899" d="M139 614q0 51 39 88t98 37h510q57 0 96.5 -37t39.5 -88q0 -53 -39 -89t-97 -36h-510q-59 0 -98 36t-39 89z" />
<glyph unicode="&#x2013;" horiz-adv-x="964" d="M139 598q0 51 39 89t98 38h574q59 0 98 -38t39 -89q0 -53 -41 -89t-96 -36h-574q-59 0 -98 36t-39 89z" />
<glyph unicode="&#x2014;" horiz-adv-x="1167" d="M139 598q0 51 39 89t98 38h779q59 0 98 -38t39 -89q0 -53 -41 -89t-96 -36h-779q-59 0 -98 36t-39 89z" />
<glyph unicode="&#x2018;" horiz-adv-x="550" d="M252 1044q0 41 24.5 115t61.5 146.5t82 126t86 53.5q12 0 27.5 -3t27.5 -13.5t17 -27.5t-3 -48q-6 -25 -16 -44.5t-23.5 -39t-27.5 -43t-25 -56.5q51 -10 82 -49t31 -88q0 -35 -16.5 -66.5t-43 -55t-62.5 -38t-75 -14.5q-61 0 -104 40t-43 105z" />
<glyph unicode="&#x2019;" horiz-adv-x="552" d="M289 1311q0 35 16.5 66.5t43 55t62 38t74.5 14.5q61 0 104.5 -40t43.5 -106q0 -29 -11.5 -71.5t-30 -92t-44 -98.5t-53 -89t-57 -64.5t-56.5 -24.5q-12 0 -27.5 3t-28 13.5t-18.5 27.5t2 48q6 25 17.5 44.5t25 39t26.5 42t25 57.5q-53 10 -83.5 49t-30.5 88z" />
<glyph unicode="&#x201a;" horiz-adv-x="552" d="M123 0zM123 125q0 35 16.5 66.5t43 55t61.5 38t73 14.5q63 0 106.5 -40t43.5 -105q0 -27 -11.5 -71t-29.5 -93t-44 -98.5t-54.5 -89.5t-58 -64.5t-56.5 -24.5q-12 0 -27.5 3t-28 13.5t-18.5 27.5t2 48q6 25 17.5 44.5t25 39t27.5 42t25 57.5q-51 10 -82 49t-31 88z" />
<glyph unicode="&#x201c;" horiz-adv-x="962" d="M252 1044q0 41 24.5 115t61.5 146.5t82 126t86 53.5q12 0 27.5 -3t27.5 -13.5t17 -27.5t-3 -48q-6 -25 -16 -44.5t-23.5 -39t-27.5 -43t-25 -56.5q51 -10 82 -49t31 -88q0 -35 -16.5 -66.5t-43 -55t-62.5 -38t-75 -14.5q-61 0 -104 40t-43 105zM664 1044q0 41 24.5 115 t61 146.5t82 126t86.5 53.5q12 0 27.5 -3t27.5 -13.5t17 -27.5t-3 -48q-6 -25 -16 -44.5t-23.5 -39t-28 -43t-24.5 -56.5q51 -10 82 -49t31 -88q0 -35 -16.5 -66.5t-43 -55t-62.5 -38t-75 -14.5q-61 0 -104 40t-43 105z" />
<glyph unicode="&#x201d;" horiz-adv-x="962" d="M289 1311q0 35 16.5 66.5t43 55t62 38t74.5 14.5q61 0 104.5 -40t43.5 -106q0 -29 -11.5 -71.5t-30 -92t-44 -98.5t-53 -89t-57 -64.5t-56.5 -24.5q-12 0 -27.5 3t-28 13.5t-18.5 27.5t2 48q6 25 17.5 44.5t25 39t26.5 42t25 57.5q-53 10 -83.5 49t-30.5 88zM700 1311 q0 35 16.5 66.5t43 55t62.5 38t75 14.5q61 0 104 -40t43 -106q0 -29 -11 -71.5t-29.5 -92t-44 -98.5t-53 -89t-57.5 -64.5t-56 -24.5q-12 0 -27.5 3t-28 13.5t-18.5 27.5t2 48q6 25 17.5 44.5t24.5 39t26.5 42t25.5 57.5q-53 10 -84 49t-31 88z" />
<glyph unicode="&#x201e;" horiz-adv-x="962" d="M123 123q0 35 16.5 66.5t43 55t61.5 38t73 14.5q63 0 106.5 -40t43.5 -105q0 -27 -11.5 -71t-29.5 -93t-44 -98.5t-54.5 -89.5t-58 -64.5t-56.5 -24.5q-12 0 -27.5 3t-28 13.5t-18.5 27.5t2 48q6 25 17.5 44.5t25 39t27.5 42t25 57.5q-51 10 -82 49t-31 88zM535 123 q0 35 15 66.5t41.5 55t62.5 38t75 14.5q61 0 105.5 -40t44.5 -105q0 -27 -11.5 -71t-30 -93t-44 -98.5t-54 -89.5t-58.5 -64.5t-56 -24.5q-12 0 -27.5 3t-28 13.5t-18.5 27.5t2 48q6 25 17.5 44.5t24.5 39t27.5 42t24.5 57.5q-51 10 -81.5 49t-30.5 88z" />
<glyph unicode="&#x2022;" horiz-adv-x="620" d="M195 539q0 43 18 81.5t49 68.5t71 47.5t83 17.5q74 0 122 -50t48 -122q0 -43 -18.5 -82t-50.5 -69t-71.5 -47t-83.5 -17q-72 0 -119.5 50t-47.5 122z" />
<glyph unicode="&#x2026;" horiz-adv-x="1617" d="M123 125q0 35 16.5 66.5t43 55t62.5 38t74 14.5q63 0 105.5 -41t42.5 -100q0 -35 -16.5 -67t-43 -56.5t-61.5 -38.5t-72 -14q-66 0 -108.5 42t-42.5 101zM655 125q0 35 16.5 66.5t43 55t62.5 38t75 14.5q63 0 105 -41t42 -100q0 -35 -16 -67t-43 -56.5t-61.5 -38.5 t-71.5 -14q-68 0 -110 42t-42 101zM1188 125q0 35 16.5 66.5t43 55t62.5 38t74 14.5q63 0 105.5 -41t42.5 -100q0 -35 -16.5 -67t-43 -56.5t-61.5 -38.5t-72 -14q-68 0 -109.5 42t-41.5 101z" />
<glyph unicode="&#x202f;" horiz-adv-x="383" />
<glyph unicode="&#x2039;" horiz-adv-x="651" d="M137 524l377 469q20 25 37.5 39.5t46.5 14.5q33 0 57.5 -29t24.5 -74q0 -20 -4 -31.5t-12 -21.5l-299 -363l213 -385q6 -12 6 -26q0 -25 -9.5 -48.5t-26 -42t-39 -30.5t-46.5 -12q-29 0 -42 13t-30 42z" />
<glyph unicode="&#x203a;" horiz-adv-x="651" d="M98 90q0 35 17 53l319 385l-196 363q-4 8 -5 29q0 53 38 90t77 37q29 0 43.5 -14.5t26.5 -39.5l244 -469l-392 -485q-23 -29 -40 -42t-46 -13q-41 0 -63.5 31.5t-22.5 74.5z" />
<glyph unicode="&#x205f;" horiz-adv-x="479" />
<glyph unicode="&#x20ac;" d="M102 580q0 35 29 59.5t64 24.5h73l15 114h-74q-31 0 -50.5 19.5t-19.5 48.5q0 35 29 59.5t63 24.5h74l10 78q14 102 54.5 186t108 143.5t163.5 92t219 32.5q74 0 142.5 -16t120 -45t82 -66t30.5 -80q0 -53 -45 -94t-109 -41q-35 0 -50 9.5t-34 21.5q-43 35 -78.5 48 t-82.5 13q-119 0 -170.5 -54t-63.5 -150l-10 -78h311q29 0 49.5 -19.5t20.5 -48.5q0 -35 -27.5 -59.5t-64.5 -24.5h-312l-14 -114h229q29 0 49.5 -19.5t20.5 -48.5q0 -35 -27.5 -59.5t-64.5 -24.5h-230l-10 -74q-14 -96 23 -150.5t153 -54.5q45 0 87 14.5t102 53.5 q20 10 35.5 17.5t46.5 7.5q53 0 85.5 -33t32.5 -78q0 -47 -37.5 -89t-99 -74t-139.5 -50t-158 -18q-123 0 -210 32.5t-137 92t-67.5 143.5t-2.5 186l10 74h-74q-31 0 -50.5 19.5t-19.5 48.5z" />
<glyph unicode="&#x2122;" horiz-adv-x="1624" d="M209 1341q0 45 32.5 77t77.5 32h482q35 0 59.5 -24.5t24.5 -61.5q0 -45 -34 -74.5t-77 -29.5h-143l-82 -584q-6 -41 -38 -67.5t-73 -26.5t-65.5 27.5t-18.5 66.5l82 584h-143q-37 0 -60.5 22.5t-23.5 58.5zM852 674l96 686q6 45 38 72.5t75 27.5q31 0 53.5 -14t32.5 -43 l137 -395l248 395v-2q20 33 47 46t55 13q37 0 62.5 -30.5t21.5 -69.5l-96 -686q-6 -37 -39 -64.5t-67 -27.5q-41 0 -66 27.5t-18 64.5l55 391q-35 -53 -69 -106.5t-66 -106.5q-18 -29 -44 -43t-55 -14t-51 16t-33 41q-16 45 -24 66.5t-14.5 39t-13.5 39t-21 68.5l-56 -391 q-6 -37 -38.5 -64.5t-67.5 -27.5q-41 0 -64.5 27.5t-17.5 64.5z" />
<glyph unicode="&#x25fc;" horiz-adv-x="1044" d="M0 0v1044h1044v-1044h-1044z" />
</font>
</defs>
</svg>
